<?xml version="1.0" standalone="no"?>
<!DOCTYPE svg PUBLIC "-//W3C//DTD SVG 20010904//EN"
 "http://www.w3.org/TR/2001/REC-SVG-20010904/DTD/svg10.dtd">
<svg version="1.0" xmlns="http://www.w3.org/2000/svg"
 width="1667.000000pt" height="1667.000000pt" viewBox="0 0 1667.000000 1667.000000"
 preserveAspectRatio="xMidYMid meet">
<metadata>
Created by potrace 1.14, written by Peter Selinger 2001-2017
</metadata>
<g transform="translate(0.000000,1667.000000) scale(0.100000,-0.100000)"
fill="#888" stroke="none">
<path d="M9023 15965 c-23 -14 -58 -48 -78 -75 l-37 -50 -27 20 c-45 31 -113
46 -148 31 -42 -17 -67 -66 -67 -127 0 -88 48 -141 234 -258 46 -29 66 -36 81
-30 32 15 207 214 230 262 44 89 20 210 -46 240 -42 19 -96 14 -142 -13z m105
-109 c23 -46 -7 -105 -101 -203 -44 -46 -83 -83 -86 -83 -14 0 -123 97 -146
130 -33 48 -41 85 -20 94 21 8 50 -8 103 -56 27 -24 49 -37 58 -34 9 3 19 6
23 6 5 0 16 21 26 47 21 55 91 135 114 131 9 -2 22 -16 29 -32z"/>
<path d="M9885 15578 c-102 -56 -146 -181 -111 -318 35 -140 198 -421 252
-434 33 -9 87 9 141 45 45 31 224 211 293 294 55 67 108 176 122 251 10 54 9
66 -8 100 -25 51 -71 74 -149 74 -79 0 -160 -38 -242 -114 l-62 -57 -16 31
c-22 43 -83 108 -116 126 -33 17 -76 18 -104 2z m570 -102 c28 -20 23 -84 -12
-148 -15 -28 -87 -115 -160 -194 -128 -136 -208 -204 -243 -204 -18 0 -104
169 -140 274 -34 100 -22 244 23 267 15 9 25 5 49 -18 38 -35 56 -71 77 -147
9 -32 24 -64 33 -69 27 -18 62 6 96 66 36 63 94 117 172 157 63 33 79 36 105
16z"/>
<path d="M6007 14879 c-55 -42 -58 -133 -11 -295 79 -276 262 -524 386 -524
58 0 183 124 336 332 90 122 129 234 119 336 -11 110 -96 182 -196 167 -63 -9
-154 -59 -223 -124 l-58 -53 -73 69 c-40 38 -94 79 -118 91 -59 29 -127 29
-162 1z m239 -201 c126 -119 134 -121 188 -39 118 182 326 200 303 27 -13 -92
-76 -192 -216 -340 -54 -58 -106 -121 -115 -140 -9 -20 -23 -36 -29 -36 -26 0
-96 62 -132 116 -105 157 -213 484 -175 529 11 13 16 13 43 -3 16 -9 76 -61
133 -114z"/>
<path d="M9060 14594 c-100 -17 -145 -31 -220 -66 -66 -32 -101 -57 -159 -114
l-73 -74 -54 50 c-219 200 -586 198 -772 -4 -85 -92 -126 -200 -125 -331 0
-202 125 -387 413 -609 225 -174 307 -258 365 -374 22 -43 28 -74 34 -153 7
-107 13 -119 62 -119 29 0 52 22 69 64 22 58 102 166 168 227 89 81 168 134
404 268 224 127 324 198 419 297 244 255 271 550 70 750 -67 66 -198 135 -315
164 -76 19 -236 33 -286 24z m316 -148 c97 -31 155 -67 214 -133 100 -111 114
-267 38 -423 -23 -47 -56 -90 -122 -155 -100 -99 -181 -156 -416 -290 -222
-126 -322 -197 -427 -300 l-93 -92 -11 36 c-36 114 -165 256 -414 458 -245
199 -304 262 -346 370 -30 79 -30 187 0 266 32 81 114 168 200 210 62 30 73
32 172 32 101 0 108 -1 180 -37 82 -41 151 -105 196 -183 47 -80 94 -73 142
23 103 204 416 303 687 218z"/>
<path d="M9145 14179 c-40 -9 -80 -43 -69 -60 3 -5 -3 -9 -14 -9 -18 0 -19
-13 -26 -202 -8 -239 -10 -233 91 -224 88 7 143 39 143 81 0 37 -24 48 -85 42
l-55 -6 0 35 0 34 63 0 c67 0 87 10 87 46 0 41 -25 49 -86 30 -31 -10 -57 -16
-59 -14 -1 2 -8 34 -14 72 -7 38 -16 77 -21 86 -8 15 -3 16 51 7 52 -7 63 -6
80 9 24 22 24 46 1 67 -20 19 -28 19 -87 6z"/>
<path d="M8876 14131 c-24 -26 -35 -80 -37 -176 -1 -44 -4 -93 -8 -110 l-7
-30 -7 30 c-3 17 -12 59 -18 95 -15 81 -34 120 -59 120 -29 0 -34 -51 -20
-186 23 -231 68 -301 140 -224 40 43 65 116 84 243 22 148 21 198 -5 231 -24
31 -40 33 -63 7z"/>
<path d="M8476 14072 c-46 -49 -62 -159 -47 -314 11 -111 29 -156 71 -182 36
-21 61 -15 95 22 99 107 95 283 -9 442 -47 71 -66 77 -110 32z"/>
<path d="M8171 14077 c-21 -26 -43 -153 -43 -253 0 -115 15 -158 77 -212 44
-39 98 -43 139 -11 49 38 25 99 -39 99 -59 0 -67 24 -63 203 2 119 0 158 -11
170 -16 20 -44 22 -60 4z"/>
<path d="M7675 13336 c-34 -15 -82 -58 -106 -95 l-15 -25 -54 27 c-94 47 -165
29 -191 -50 -41 -124 22 -227 189 -310 40 -20 75 -40 78 -45 14 -22 47 -1 116
75 166 182 209 281 158 365 -39 63 -109 87 -175 58z m83 -98 c17 -17 15 -58
-6 -100 -22 -42 -171 -208 -187 -208 -18 0 -128 93 -152 129 -28 42 -30 96 -5
110 27 15 82 -16 111 -61 18 -28 31 -38 51 -38 32 0 50 17 50 47 0 34 24 76
60 107 34 28 59 33 78 14z"/>
<path d="M5478 11680 c-134 -17 -273 -83 -273 -129 0 -42 27 -48 97 -23 199
70 382 68 665 -7 330 -88 803 -316 1065 -514 74 -56 231 -209 289 -282 134
-170 256 -406 322 -625 58 -190 91 -372 131 -710 27 -240 27 -294 -3 -275 -7
3 -11 41 -11 89 0 443 -357 1119 -797 1512 -182 162 -295 237 -680 453 -136
76 -295 167 -353 201 -192 115 -312 160 -424 160 -73 0 -129 -18 -144 -47 -15
-30 -3 -43 41 -43 173 -1 313 -54 622 -235 77 -45 192 -110 255 -144 381 -208
540 -321 737 -522 139 -141 219 -239 325 -399 78 -118 238 -415 238 -443 0 -6
-26 31 -57 82 -200 321 -572 710 -894 933 -305 212 -816 448 -1100 508 -114
24 -165 26 -173 5 -14 -38 12 -52 229 -120 648 -200 1071 -452 1490 -886 217
-225 380 -447 488 -664 56 -113 119 -273 132 -335 4 -19 12 -40 17 -47 5 -7 8
-18 6 -25 -8 -21 -70 86 -172 293 -179 363 -431 659 -789 928 -345 258 -661
396 -1140 497 -94 19 -206 47 -250 60 -43 14 -85 23 -93 20 -21 -8 -17 -40 9
-63 27 -25 59 -35 352 -113 267 -72 381 -107 520 -162 302 -119 635 -353 914
-643 144 -149 221 -243 306 -375 66 -102 199 -350 187 -350 -4 1 -29 33 -57
72 -61 88 -242 272 -350 358 -252 200 -550 356 -925 485 -69 24 -199 73 -290
109 -227 89 -256 96 -456 103 -206 7 -224 4 -224 -38 0 -44 38 -55 205 -62 95
-4 167 -13 225 -28 105 -26 651 -231 812 -303 196 -89 424 -226 608 -366 108
-83 117 -99 19 -40 -174 107 -460 228 -703 299 -151 45 -492 118 -604 131
-141 16 -243 -18 -196 -65 19 -19 31 -21 188 -35 286 -25 592 -101 911 -227
232 -92 435 -206 619 -349 82 -63 96 -78 82 -86 -12 -7 -31 -1 -70 20 -120 68
-273 108 -591 152 -82 12 -251 44 -373 71 -241 54 -399 79 -502 78 -141 0
-315 -49 -308 -86 3 -17 20 -18 233 -14 255 4 292 0 610 -60 116 -22 297 -51
404 -65 106 -14 221 -31 255 -38 l61 -12 -100 -8 c-55 -4 -145 -14 -201 -21
-154 -22 -420 -35 -729 -35 -294 -1 -480 -11 -497 -28 -5 -5 -7 -19 -4 -30 6
-18 19 -21 102 -27 122 -10 889 21 1009 40 332 53 371 57 475 51 148 -7 180
-19 123 -46 -281 -131 -844 -303 -1178 -361 -261 -45 -362 -44 -426 2 -28 20
-32 20 -47 6 -13 -14 -14 -20 -3 -39 65 -123 393 -110 898 36 245 71 379 122
668 251 153 68 -75 -65 -290 -170 -281 -136 -459 -195 -938 -311 -131 -32
-245 -62 -253 -68 -9 -7 -12 -18 -8 -29 8 -22 91 -23 242 -2 377 53 868 241
1287 493 82 50 152 89 154 87 6 -6 -63 -89 -154 -184 -79 -82 -227 -216 -375
-338 -41 -34 -132 -109 -201 -166 -313 -258 -510 -392 -717 -487 -152 -69
-179 -92 -123 -105 46 -10 99 3 196 50 173 84 382 226 684 464 380 300 574
472 697 623 33 39 69 83 81 97 l22 26 -5 -60 c-8 -91 -33 -242 -48 -286 -37
-106 -179 -272 -410 -480 -200 -181 -732 -510 -973 -603 -106 -41 -163 -46
-200 -16 -19 15 -30 17 -44 9 -23 -12 -23 -11 -5 -53 18 -42 67 -61 134 -51
168 24 471 173 842 413 157 101 265 187 394 312 121 116 121 107 -1 -68 -148
-212 -306 -357 -608 -554 -292 -191 -476 -292 -648 -353 -98 -35 -111 -51 -63
-73 42 -21 133 5 291 82 217 105 599 343 750 467 78 64 230 217 292 294 231
287 381 664 384 966 2 114 -2 139 -18 139 -8 0 -7 9 5 30 l17 29 41 -40 c29
-29 48 -40 65 -37 20 3 23 -1 24 -27 0 -17 20 -61 47 -105 82 -131 132 -266
170 -455 19 -92 23 -143 23 -315 0 -183 -3 -214 -23 -290 -39 -142 -100 -258
-194 -371 -41 -49 -47 -73 -22 -83 22 -8 69 18 127 73 57 53 51 37 -27 -72
-47 -65 -54 -82 -46 -98 15 -28 35 -24 80 17 117 106 204 293 246 529 22 123
24 411 5 530 -37 224 -122 425 -229 537 -20 21 -33 40 -31 43 8 7 164 -119
188 -153 75 -107 133 -296 152 -499 26 -294 -28 -629 -165 -1013 -48 -137 -53
-157 -40 -170 11 -11 19 -12 32 -4 28 17 108 181 151 309 74 224 105 424 105
695 0 189 -10 282 -45 418 -11 41 -18 76 -16 79 2 2 22 -25 45 -59 142 -221
187 -381 186 -668 -1 -302 -62 -566 -201 -874 -30 -66 -52 -125 -49 -132 6
-15 -43 -34 -88 -34 -42 0 -58 -13 -54 -41 6 -45 125 -51 205 -10 179 91 388
471 449 816 26 148 24 406 -5 543 -51 242 -168 446 -377 657 l-89 90 135 0
c128 0 138 2 192 28 208 102 209 384 2 427 -66 14 -170 7 -280 -20 -41 -9 -74
-15 -74 -13 0 2 30 35 67 74 272 282 325 506 142 599 -159 82 -314 -19 -457
-298 -33 -64 -77 -162 -98 -217 l-39 -100 -7 105 c-49 689 -338 1267 -799
1592 -265 187 -598 351 -937 462 -164 54 -282 81 -414 95 -106 12 -134 12
-220 1z m2916 -1731 c14 -7 32 -27 41 -46 15 -31 15 -38 1 -86 -40 -132 -296
-420 -479 -538 -33 -22 -62 -38 -64 -36 -4 5 75 221 126 342 115 274 261 416
375 364z m210 -673 c47 -30 40 -123 -12 -171 -84 -79 -339 -69 -529 21 -29 14
-53 29 -53 33 0 8 160 74 244 101 123 40 302 48 350 16z m-381 -402 c122 -121
205 -219 262 -308 200 -314 238 -719 104 -1117 -67 -199 -147 -351 -234 -448
-52 -57 -61 -51 -18 12 84 123 156 323 194 537 27 148 37 449 20 584 -32 254
-132 455 -321 646 -47 47 -98 104 -114 126 -16 21 -45 56 -65 77 l-36 38 49
-19 c37 -14 77 -47 159 -128z m-244 -109 c46 -94 85 -219 103 -325 14 -83 15
-347 1 -424 -6 -36 -8 3 -9 140 -2 278 -41 468 -135 659 -24 48 -32 70 -19 55
11 -14 38 -61 59 -105z"/>
<path d="M12074 11625 c-121 -26 -277 -103 -403 -197 -30 -23 -52 -34 -48 -26
41 108 31 134 -46 125 -93 -11 -167 -69 -265 -206 l-32 -44 0 104 c-1 165 -28
238 -91 239 -22 0 -35 -14 -84 -92 -98 -157 -240 -368 -247 -368 -3 0 -11 21
-17 48 -51 224 -53 232 -73 243 -14 8 -25 7 -43 -5 -18 -12 -25 -28 -30 -73
-7 -62 -54 -305 -59 -311 -2 -2 -38 31 -79 72 -76 76 -108 91 -135 64 -18 -18
-14 -52 13 -114 14 -32 23 -59 21 -62 -3 -2 -74 0 -157 6 -167 12 -179 10
-179 -38 0 -35 13 -45 80 -62 l55 -14 -65 -22 c-79 -27 -224 -58 -305 -67
-100 -11 -136 -35 -118 -80 14 -39 168 -48 318 -20 48 9 89 14 91 12 15 -14
-144 -102 -281 -157 -99 -39 -188 -85 -204 -104 -17 -20 -5 -55 22 -65 12 -5
54 -12 93 -16 92 -9 103 -15 81 -48 -43 -65 -144 -114 -312 -148 -61 -12 -116
-27 -122 -32 -19 -14 -16 -41 7 -62 18 -16 33 -17 147 -12 71 4 148 9 173 12
l45 6 -60 -56 c-33 -32 -123 -105 -200 -165 -128 -98 -245 -207 -245 -227 0
-14 31 -53 42 -53 6 0 60 27 120 60 59 33 125 67 145 75 l36 15 -27 -32 c-64
-80 -172 -250 -209 -328 -40 -87 -77 -212 -77 -261 0 -17 8 -34 21 -43 22 -15
22 -15 -15 -58 -79 -91 -137 -256 -105 -294 32 -39 142 22 230 126 23 27 44
49 46 47 2 -2 -26 -67 -61 -144 -85 -186 -118 -290 -120 -378 l-1 -70 31 -3
c25 -2 36 3 57 31 36 48 90 147 132 247 20 47 41 90 47 95 14 14 3 -159 -23
-357 -30 -230 -35 -384 -15 -497 18 -105 46 -178 72 -188 25 -9 85 27 107 65
l20 34 37 -114 c61 -184 125 -294 234 -396 47 -45 61 -53 89 -50 46 4 45 25
-8 168 -25 67 -44 124 -42 127 3 2 28 -49 57 -114 121 -270 184 -377 268 -460
58 -56 152 -102 226 -110 52 -5 56 -4 67 20 11 25 5 70 -17 133 -4 11 20 -15
54 -58 101 -126 180 -205 259 -258 77 -52 112 -61 133 -35 11 13 24 5 91 -60
100 -95 238 -198 307 -227 50 -22 52 -24 45 -53 -3 -16 -6 -69 -5 -117 2 -80
0 -88 -17 -88 -10 0 -34 -10 -52 -23 -19 -13 -98 -56 -174 -96 -250 -131 -340
-207 -484 -411 -41 -58 -101 -138 -134 -177 -47 -57 -58 -78 -55 -98 5 -22
-10 -40 -104 -130 -182 -174 -341 -286 -663 -467 -441 -247 -628 -320 -950
-368 -272 -40 -295 -47 -332 -94 l-19 -24 -180 117 c-248 160 -328 218 -452
324 -122 105 -385 365 -549 543 -97 105 -176 173 -216 187 -7 2 -1 17 16 36
57 68 17 181 -69 197 -30 5 -52 28 -162 163 -224 276 -341 384 -497 458 -76
36 -85 38 -182 38 -99 0 -101 0 -120 28 -23 35 -87 66 -151 74 l-50 6 -7 76
c-16 174 -51 303 -95 351 -47 50 -100 34 -100 -30 0 -12 18 -74 39 -138 65
-195 75 -329 32 -428 -24 -53 -51 -68 -110 -61 -67 7 -109 58 -144 174 -40
129 -49 202 -45 358 3 136 2 140 -18 143 -27 4 -30 -6 -45 -115 -11 -86 -8
-320 6 -354 5 -13 -4 -19 -41 -28 -26 -7 -60 -21 -76 -33 -25 -17 -33 -18 -58
-8 -46 19 -156 8 -220 -21 -123 -58 -339 -250 -425 -379 -49 -74 -81 -141 -90
-193 -6 -30 -12 -35 -41 -40 -93 -15 -149 -120 -114 -213 12 -31 -4 -62 -105
-209 -141 -203 -337 -406 -533 -552 -131 -98 -208 -134 -396 -188 -257 -74
-326 -122 -334 -235 -4 -54 -2 -59 22 -75 24 -16 66 -16 109 1 9 3 11 -7 9
-36 -6 -59 5 -88 41 -110 58 -36 124 -22 177 35 47 53 182 145 291 201 190 97
297 182 559 444 157 157 266 278 394 437 l58 72 24 -29 c49 -58 130 -48 165
21 11 22 22 60 26 85 5 38 15 55 57 97 34 35 66 82 95 141 48 99 50 99 74 -9
47 -216 25 -424 -93 -895 -126 -504 -261 -826 -495 -1181 l-83 -126 2 -81 c1
-75 3 -83 31 -112 145 -153 497 -140 701 26 l42 34 38 -31 c50 -40 88 -60 142
-73 l44 -11 4 -450 c3 -253 9 -473 15 -502 15 -75 64 -142 130 -176 46 -25 62
-28 110 -24 107 9 181 64 220 164 20 51 23 75 22 193 -1 150 -18 264 -83 545
-42 181 -57 265 -47 265 3 0 27 -9 53 -20 106 -46 245 -43 337 8 28 15 70 50
95 78 l45 51 40 -26 39 -26 -5 -55 c-31 -299 -32 -638 -3 -800 29 -155 95
-267 175 -291 76 -23 170 25 211 106 23 47 25 59 24 200 -1 159 -2 168 -89
545 -19 85 -38 184 -41 220 l-6 65 37 24 c20 13 46 38 57 55 12 17 23 33 24
35 2 2 25 -10 51 -27 93 -60 148 -76 258 -76 88 -1 107 2 157 26 90 42 168
135 168 202 0 31 -57 95 -106 119 -56 28 -106 97 -174 241 -78 162 -122 268
-190 451 -84 224 -281 776 -305 855 -21 68 -65 226 -65 233 0 2 24 -8 54 -22
47 -23 54 -30 60 -63 10 -58 88 -109 148 -96 10 2 76 -58 170 -153 171 -175
287 -280 493 -448 306 -250 387 -330 506 -503 76 -111 113 -146 166 -162 32
-10 92 21 99 50 6 23 7 23 55 -20 27 -25 69 -54 92 -65 56 -27 136 -28 167 -3
l23 19 -29 53 c-40 73 -108 146 -178 192 -55 35 -96 48 -96 30 0 -4 13 -15 29
-25 39 -23 131 -124 159 -175 21 -39 22 -42 5 -42 -10 0 -41 13 -70 30 -45 26
-82 62 -208 207 -53 61 -96 15 -50 -53 46 -67 17 -136 -37 -87 -11 10 -45 56
-76 103 -72 111 -185 222 -527 520 -154 135 -355 319 -447 410 l-167 165 11
43 c10 35 16 42 38 42 14 0 40 9 57 20 32 19 40 36 45 94 l3 28 67 -62 c37
-34 111 -116 165 -183 138 -174 453 -486 632 -626 31 -24 151 -107 266 -184
224 -149 327 -225 415 -307 80 -73 131 -58 75 24 -14 20 -25 38 -25 39 0 1 25
0 55 -1 79 -5 105 3 105 33 0 14 -6 25 -12 25 -44 1 -162 21 -179 31 -18 9
-19 13 -8 24 18 17 141 41 284 55 140 14 301 56 435 113 107 46 396 191 635
320 295 158 473 297 590 461 45 64 50 68 62 50 8 -10 34 -47 59 -82 54 -76 62
-58 -109 -231 -263 -267 -548 -475 -868 -635 -261 -130 -544 -218 -859 -266
-212 -32 -215 -33 -215 -55 0 -16 10 -21 55 -28 78 -12 278 -1 390 22 384 78
885 328 1270 631 103 81 344 313 406 390 l31 39 29 -30 c15 -16 37 -29 48 -29
12 0 45 18 74 40 29 22 55 40 57 40 3 0 5 -31 5 -68 0 -37 7 -122 16 -187 23
-174 15 -496 -20 -762 -19 -143 -24 -208 -17 -221 6 -11 44 -34 85 -53 l74
-33 7 -311 c7 -277 -3 -717 -20 -952 -7 -87 6 -106 78 -117 l46 -7 3 -147 c2
-81 0 -148 -4 -150 -5 -2 -8 -27 -8 -56 0 -70 28 -113 99 -148 111 -56 281
-25 365 67 52 57 74 171 38 197 -13 9 -21 31 -25 75 -4 34 -9 80 -13 102 l-7
41 40 0 c76 0 74 -8 76 394 l2 356 81 0 81 0 6 -102 c7 -99 23 -186 84 -458
l29 -125 39 -12 c22 -6 66 -12 98 -12 31 -1 57 -4 57 -7 0 -26 -33 -267 -40
-294 -23 -86 40 -164 157 -196 57 -15 74 -16 137 -5 68 11 153 45 186 73 51
43 70 137 31 157 -11 6 -22 30 -29 63 -6 29 -28 94 -50 145 l-40 91 44 7 c66
10 69 20 69 235 0 209 -5 241 -89 610 -30 129 -62 282 -71 339 -15 100 -15
105 2 115 58 32 93 98 93 177 0 19 -13 141 -29 270 -35 278 -95 947 -86 957 2
2 25 -29 52 -69 61 -92 73 -100 111 -72 l30 22 64 -72 c145 -163 607 -707 688
-811 36 -46 94 -133 130 -192 73 -123 127 -187 180 -214 53 -27 110 -30 110
-6 0 27 18 26 67 -4 79 -49 205 -61 218 -20 10 32 -43 173 -94 250 -64 97
-139 174 -337 348 -88 77 -201 185 -250 239 -333 363 -419 471 -500 634 l-36
72 46 43 c25 23 46 49 46 56 0 16 -172 352 -215 418 -40 62 -132 157 -181 186
-63 37 -147 62 -278 84 -190 32 -273 61 -328 114 -34 34 -56 47 -88 52 l-42 7
6 54 c8 66 -9 220 -30 276 -9 23 -16 60 -15 82 2 58 -30 105 -69 105 -23 0
-44 12 -83 48 -29 27 -64 58 -79 69 -24 18 -26 22 -13 33 23 19 37 83 49 229
l11 134 72 -85 c120 -143 194 -188 309 -188 57 0 65 2 81 26 28 44 5 127 -75
263 -31 53 -19 49 78 -30 120 -98 205 -154 263 -174 l57 -19 21 21 21 21 -26
94 c-15 51 -29 102 -33 113 -4 15 3 12 32 -14 49 -43 93 -61 147 -61 90 0 117
54 91 179 l-16 76 31 33 31 33 50 -77 c28 -43 67 -119 87 -170 39 -97 56 -114
94 -94 29 15 26 53 -15 216 -55 218 -52 225 85 205 67 -9 94 -10 110 -1 16 8
30 9 52 1 43 -15 64 -14 83 6 25 25 13 131 -36 320 -21 85 -39 156 -39 160 0
4 46 -40 103 -98 56 -58 117 -114 135 -124 l32 -19 0 -106 c0 -122 -18 -217
-53 -286 -27 -54 -73 -102 -84 -90 -5 4 -8 51 -8 104 0 107 -5 122 -39 122
-34 0 -43 -16 -55 -100 -16 -102 -68 -252 -122 -347 -50 -88 -187 -234 -256
-271 l-41 -22 -12 71 c-13 76 -11 100 15 169 26 69 31 133 11 149 -47 39 -98
-27 -120 -154 -24 -139 -171 -329 -311 -404 l-40 -21 -12 30 c-7 16 -22 87
-33 157 -27 167 -36 201 -59 208 -29 9 -44 -2 -83 -63 -42 -65 -80 -147 -128
-274 -18 -49 -36 -88 -40 -88 -10 0 -61 126 -95 232 -26 84 -47 110 -74 94
-26 -16 -18 -214 12 -302 20 -55 42 -52 40 6 l-1 45 24 -55 c39 -86 84 -150
105 -150 26 0 40 25 97 170 52 132 102 243 108 237 2 -1 10 -46 19 -100 24
-147 50 -225 80 -233 77 -19 241 100 355 260 18 25 36 46 39 46 3 0 13 -28 21
-62 23 -95 47 -99 167 -26 131 79 244 209 325 375 50 102 50 102 73 87 22 -14
27 -14 59 1 104 50 183 201 202 388 4 37 8 67 9 67 2 0 16 -7 31 -15 45 -23
79 -18 119 17 71 62 118 191 131 361 7 84 8 86 35 92 61 14 113 78 149 184 27
81 27 210 0 316 -11 43 -20 79 -20 81 0 1 24 0 53 -3 73 -7 81 4 74 107 -4 68
-12 93 -46 163 -23 45 -66 112 -96 150 -30 37 -55 68 -55 70 0 1 34 2 76 2 83
0 104 13 104 64 0 48 -56 147 -124 218 -36 39 -66 73 -66 75 0 3 25 8 56 11
72 7 88 20 81 69 -12 87 -84 187 -184 253 -32 22 -69 52 -83 67 -18 20 -41 31
-79 38 -73 14 -78 22 -10 15 113 -12 140 19 97 111 -30 66 -99 132 -209 203
l-91 60 38 10 c22 5 58 15 80 20 41 11 54 25 54 60 0 24 -70 73 -204 143
l-111 58 62 0 c52 0 64 3 73 20 18 33 2 59 -57 97 -74 47 -159 81 -382 153
-102 33 -197 66 -210 74 -23 13 -23 14 25 25 57 14 143 59 157 82 20 32 0 65
-52 88 -113 48 -154 54 -415 59 l-249 4 99 52 c181 95 221 134 180 174 -14 14
-39 17 -164 16 -129 0 -170 -5 -330 -38 -100 -20 -213 -40 -250 -45 l-67 -8
29 21 c109 78 157 120 199 171 51 64 55 76 31 99 -18 19 -57 19 -140 1z m-24
-110 c-13 -14 -81 -63 -152 -110 -104 -69 -128 -89 -128 -109 0 -43 23 -51
149 -50 93 1 156 10 316 42 196 40 335 61 335 49 0 -3 -45 -29 -100 -56 -148
-74 -190 -105 -190 -141 0 -18 7 -33 18 -39 10 -5 164 -11 342 -14 321 -4 426
-15 402 -39 -6 -6 -58 -16 -117 -23 -67 -8 -113 -19 -123 -28 -24 -24 -7 -63
38 -89 22 -13 40 -25 40 -28 0 -3 -26 -13 -58 -22 -66 -20 -170 -84 -291 -182
-104 -84 -161 -126 -173 -126 -4 0 -8 10 -8 23 0 12 -9 42 -20 66 -11 24 -20
45 -20 47 0 1 48 31 107 66 133 79 193 133 193 175 0 17 -7 36 -14 43 -22 18
-191 25 -272 11 -97 -17 -206 -52 -402 -130 -66 -26 -65 -24 58 114 52 58 99
113 104 122 13 24 -10 63 -36 63 -49 0 -181 -90 -408 -278 -161 -134 -180
-147 -180 -129 0 7 34 82 75 167 108 220 108 248 6 258 -101 9 -194 -69 -308
-260 -34 -57 -78 -128 -97 -158 l-35 -55 -1 38 c0 21 16 100 35 174 39 151 42
188 19 221 -19 28 -37 28 -100 -2 -116 -54 -187 -149 -290 -391 l-43 -100 0
70 c-1 39 6 115 14 170 8 55 15 141 15 190 l2 90 21 -62 c40 -115 71 -119 143
-17 29 40 53 64 65 64 10 0 25 13 34 30 19 37 21 37 20 3 0 -58 28 -28 70 72
23 55 56 127 74 160 l32 60 -7 -125 c-12 -220 -12 -215 14 -218 31 -5 50 14
131 127 80 111 161 191 193 191 10 0 -41 -100 -81 -160 -37 -54 -39 -77 -7
-91 21 -10 37 -1 167 98 169 128 266 187 369 225 41 15 77 27 79 27 3 1 -6
-10 -19 -24z m-540 -454 c0 -5 -30 -71 -67 -147 -63 -129 -67 -142 -71 -220
-4 -82 -4 -84 21 -95 23 -11 32 -7 93 36 37 27 106 80 153 120 107 89 123 98
90 54 -14 -18 -28 -42 -32 -51 -3 -10 -13 -18 -21 -18 -21 0 -61 -72 -85 -155
-12 -38 -32 -144 -46 -234 -28 -185 -38 -226 -67 -289 -19 -40 -23 -43 -56
-40 -32 3 -37 7 -45 38 -4 19 -11 134 -16 255 -6 168 -12 232 -26 270 -22 64
-31 75 -65 75 -22 0 -35 -10 -59 -47 -74 -112 -106 -218 -142 -466 -12 -83
-25 -158 -29 -165 -4 -8 -19 47 -34 122 -33 165 -57 242 -101 321 -45 82 -76
109 -113 102 l-29 -6 54 127 c85 198 121 260 192 332 64 63 65 64 69 38 2 -15
-11 -73 -28 -130 -43 -143 -48 -202 -22 -260 23 -53 51 -67 87 -44 24 16 94
118 180 265 55 92 170 221 198 221 9 0 17 -4 17 -9z m-946 -178 c-13 -38 -26
-90 -30 -116 -6 -46 -9 -50 -50 -68 -45 -19 -324 -109 -339 -109 -4 0 10 12
31 26 98 65 174 166 154 203 -9 18 -6 23 22 37 18 9 49 28 68 43 20 15 59 31
95 37 33 6 63 12 66 13 3 0 -5 -29 -17 -66z m1881 1 c-11 -8 -58 -38 -105 -66
-79 -48 -160 -100 -253 -163 -52 -35 -153 -175 -226 -315 -34 -66 -66 -122
-70 -124 -4 -3 -1 36 6 87 19 123 13 288 -12 342 -10 22 -19 43 -19 48 -1 4
49 25 109 46 61 22 166 61 235 86 135 51 226 73 305 74 47 0 49 -1 30 -15z
m735 -118 c169 -56 186 -65 87 -45 -64 13 -87 4 -87 -37 0 -32 34 -53 238
-150 217 -103 275 -134 267 -142 -4 -4 -39 -18 -78 -32 -63 -22 -72 -28 -75
-52 -2 -17 5 -34 20 -48 l23 -22 -50 7 c-27 4 -113 10 -189 14 l-140 6 60 24
c115 47 190 113 175 154 -18 50 -166 60 -391 27 -301 -45 -270 -43 -299 -16
-30 28 -71 46 -107 46 -14 0 -23 4 -19 9 3 5 60 43 127 83 121 73 242 172 253
209 4 10 9 19 13 19 4 0 81 -25 172 -54z m-2537 -152 c8 -82 33 -138 65 -142
13 -2 29 1 36 7 11 9 12 2 3 -41 -9 -51 -3 -263 9 -338 6 -33 3 -30 -45 37
-54 76 -135 149 -179 160 -31 7 -58 -21 -68 -74 -4 -19 -12 -37 -18 -39 -7 -3
-57 -3 -111 -2 l-100 3 115 65 c120 68 230 160 230 190 0 44 -98 86 -226 98
l-79 7 126 45 126 46 11 -42 c15 -54 58 -106 86 -102 29 4 31 32 6 66 -12 17
-25 51 -27 76 -5 41 -3 46 14 46 17 0 21 -9 26 -66z m1075 -116 c2 -46 -4
-127 -17 -216 -12 -79 -21 -170 -21 -203 0 -51 3 -61 25 -75 23 -15 27 -15 50
0 40 27 114 134 198 289 43 78 86 153 96 166 l19 24 27 -28 c31 -30 83 -55
116 -55 20 0 21 -4 16 -45 -4 -25 -30 -116 -58 -202 -42 -129 -49 -160 -40
-179 6 -13 16 -24 22 -24 6 0 -5 -18 -24 -40 -19 -23 -50 -69 -68 -103 l-33
-62 -12 71 c-12 74 -43 156 -71 186 -9 10 -28 18 -43 18 -32 0 -98 -45 -134
-93 -31 -40 -71 -135 -82 -192 l-7 -40 -22 70 c-24 78 -46 125 -83 173 l-25
32 26 58 c34 77 43 113 66 282 39 274 69 346 79 188z m-1663 25 c0 -41 34 -52
197 -63 148 -10 195 -17 203 -29 6 -10 -130 -98 -242 -156 -114 -60 -163 -98
-163 -130 0 -13 6 -27 13 -32 6 -4 66 -10 132 -13 l120 -5 -40 -21 c-22 -12
-105 -42 -185 -67 -80 -26 -166 -59 -191 -75 -29 -19 -55 -28 -70 -25 -13 2
-51 -5 -84 -16 l-60 -21 30 22 c17 11 78 70 138 129 108 108 124 138 95 167
-7 7 -28 12 -47 12 l-34 0 50 48 c54 52 76 87 87 138 9 40 -10 60 -70 75 -25
7 -42 14 -39 18 4 3 41 20 83 38 42 18 77 32 77 33 1 0 1 -12 0 -27z m1225
-275 c6 -200 10 -241 28 -288 13 -36 22 -85 24 -141 l3 -85 -57 42 c-31 23
-81 52 -111 64 l-54 23 9 40 c5 23 20 119 33 214 26 185 35 226 66 312 26 70
29 75 42 62 6 -6 13 -103 17 -243z m1397 82 c27 0 30 -20 7 -55 -10 -15 -14
-34 -10 -52 7 -30 -12 -94 -65 -223 -29 -69 -36 -78 -89 -111 l-58 -37 -6 38
c-6 40 -35 83 -69 102 -12 7 -45 15 -74 18 l-52 5 94 121 c51 66 116 143 143
171 l50 51 53 -14 c29 -8 64 -14 76 -14z m-1802 -73 c14 -45 38 -148 54 -230
24 -128 26 -149 13 -159 -40 -33 28 -196 123 -294 l60 -63 -68 -10 c-115 -16
-157 -61 -157 -167 0 -100 57 -161 193 -205 l68 -22 -116 -61 c-64 -34 -139
-81 -167 -106 -38 -32 -61 -45 -87 -46 -20 -1 -96 -25 -170 -54 -73 -28 -135
-49 -138 -47 -2 3 22 33 53 67 61 65 145 129 231 175 57 30 70 52 53 85 -15
28 -46 25 -124 -14 -99 -50 -192 -71 -313 -71 -133 1 -143 9 -83 71 59 60 117
102 215 154 44 23 106 57 138 74 56 30 76 58 64 88 -3 7 -51 38 -107 68 -149
80 -263 179 -272 235 -2 16 3 21 30 23 44 4 124 -34 227 -108 64 -47 90 -61
112 -58 47 5 43 45 -16 147 -71 123 -116 217 -135 280 -19 63 -22 161 -5 161
31 0 96 -93 219 -313 24 -42 52 -84 61 -93 23 -21 65 -11 74 15 3 11 -8 89
-24 173 -44 224 -63 407 -41 393 5 -3 21 -43 35 -88z m2162 -95 c24 -15 34
-62 22 -105 -15 -60 -84 -186 -190 -348 -90 -139 -104 -174 -79 -204 19 -23
38 -19 162 29 139 55 200 69 256 61 33 -5 41 -9 33 -19 -18 -22 -103 -64 -182
-89 -68 -22 -88 -25 -177 -20 -63 4 -118 1 -147 -6 -26 -7 -49 -10 -52 -8 -2
2 14 38 36 78 78 146 92 267 38 347 l-26 40 56 64 c76 86 141 146 183 168 39
21 50 23 67 12z m428 -11 l40 -7 -45 -23 c-145 -75 -210 -143 -210 -219 0 -56
29 -98 84 -123 47 -21 183 -26 282 -9 32 6 73 12 89 15 17 2 -20 -20 -80 -49
-117 -55 -185 -106 -185 -137 0 -29 57 -86 114 -114 29 -14 102 -39 162 -54
60 -16 125 -35 143 -43 l34 -14 -24 -15 c-13 -9 -67 -32 -119 -53 -52 -20
-121 -49 -153 -66 l-57 -30 16 32 c21 40 14 119 -13 156 -32 43 -97 74 -169
80 -35 2 -64 6 -64 8 0 2 18 20 40 40 49 45 51 72 8 113 -68 64 -187 76 -325
33 -35 -11 -63 -17 -63 -14 0 3 27 47 61 99 96 149 131 233 137 331 l5 82 126
-6 c69 -4 144 -10 166 -13z m322 -40 c26 -21 59 -51 73 -66 l25 -28 -52 7
c-40 5 -55 3 -68 -10 -25 -25 -15 -57 24 -76 l34 -17 -24 -9 c-35 -14 -272
-42 -350 -42 -104 0 -114 33 -30 99 46 37 190 114 244 131 21 6 43 20 50 31 6
10 15 19 19 19 3 0 28 -17 55 -39z m-3274 -240 l35 -79 -59 28 c-59 28 -60 28
-286 29 -132 0 -231 5 -237 11 -13 13 55 41 227 95 134 41 246 99 248 129 0 6
9 -22 19 -62 11 -40 35 -108 53 -151z m1828 18 c13 -25 5 -105 -18 -182 -8
-29 -44 -113 -79 -189 -35 -75 -64 -144 -64 -153 0 -15 -2 -15 -22 -1 -68 48
-113 -13 -134 -181 -7 -62 -15 -60 -39 15 -17 52 -16 54 10 155 76 289 133
415 227 502 64 60 99 70 119 34z m-440 -26 c20 -68 23 -226 4 -351 -21 -151
-20 -147 -47 -128 -28 20 -72 21 -87 2 -7 -8 -16 -56 -22 -107 -5 -52 -11
-101 -12 -108 -1 -8 -39 37 -83 100 -45 62 -97 129 -116 148 -34 34 -34 36
-19 62 14 25 13 32 -34 140 -36 86 -49 130 -53 180 -4 62 -3 68 18 79 21 11
26 9 51 -21 54 -66 69 -125 121 -472 10 -69 26 -97 57 -97 43 0 50 19 66 177
17 169 28 236 51 305 16 49 68 128 84 128 5 0 14 -17 21 -37z m779 -52 c25
-47 3 -141 -59 -246 -59 -102 -160 -237 -228 -304 -96 -96 -112 -141 -56 -162
35 -13 71 9 143 89 63 71 134 120 216 151 l49 18 23 -27 22 -28 -39 -34 c-22
-18 -93 -62 -158 -97 -315 -171 -319 -206 -28 -296 136 -42 180 -62 213 -98
l23 -24 -32 -7 c-54 -11 -133 -7 -190 10 -83 24 -219 100 -316 176 -48 37
-104 81 -123 96 l-35 27 15 82 c8 45 18 85 22 88 3 4 14 -18 24 -49 16 -52 16
-57 1 -74 -25 -28 -21 -47 18 -81 59 -52 119 -37 117 29 -1 41 -38 174 -62
220 l-19 38 22 6 c16 4 38 38 86 133 74 149 115 214 184 289 40 44 53 53 72
48 17 -4 30 1 47 19 29 31 35 32 48 8z m-2785 -29 c25 -9 91 -17 178 -20 l138
-5 -22 -23 c-27 -29 -83 -56 -233 -110 -140 -51 -202 -86 -224 -124 -9 -16
-28 -31 -42 -34 -17 -3 -57 -42 -119 -115 -52 -61 -98 -111 -102 -111 -9 0 7
50 45 135 60 134 293 443 325 429 9 -4 34 -13 56 -22z m1310 -78 c28 -18 79
-61 114 -96 l64 -63 -29 -3 c-16 -2 -35 -8 -41 -14 -26 -21 -169 87 -227 171
-23 33 -26 44 -17 55 11 13 17 12 49 -1 20 -8 60 -30 87 -49z m2748 39 c67
-42 114 -83 142 -122 14 -21 25 -40 25 -44 0 -14 -80 -6 -145 14 -82 25 -107
22 -119 -14 -9 -24 -6 -31 28 -66 l38 -39 -74 20 c-162 45 -234 69 -257 86
l-24 19 54 30 c30 17 88 45 129 62 41 17 93 42 115 55 22 13 41 25 43 25 1 1
21 -11 45 -26z m-3657 -121 c35 -54 115 -122 209 -176 36 -21 65 -42 65 -46 0
-6 -126 -78 -173 -98 -4 -2 -3 8 3 22 12 34 -18 69 -53 61 -232 -55 -257 -59
-352 -59 -107 0 -162 13 -191 45 -18 20 -18 21 1 57 27 50 102 93 251 142 68
23 140 54 161 70 21 16 40 29 43 29 3 0 19 -21 36 -47z m944 -221 c19 -5 47
-12 62 -15 18 -4 35 -22 56 -58 17 -29 48 -72 71 -96 29 -31 36 -44 26 -47 -8
-3 -22 -7 -30 -10 -31 -9 -278 35 -329 59 -120 56 -140 127 -46 165 32 12 144
14 190 2z m2901 -147 c21 -28 39 -54 39 -59 0 -14 -76 4 -148 35 -77 33 -102
36 -120 18 -27 -27 -11 -58 79 -160 50 -57 113 -136 140 -176 48 -73 89 -175
76 -189 -16 -15 -91 54 -123 112 -18 33 -42 65 -54 71 -14 7 -18 14 -11 18 21
13 11 52 -21 85 -40 41 -97 69 -218 110 -52 17 -101 35 -109 40 -17 11 2 21
152 81 87 34 118 52 155 90 l47 46 38 -35 c21 -20 56 -59 78 -87z m-723 100
c36 -25 45 -50 28 -83 -31 -60 -164 -94 -350 -89 -77 1 -90 -1 -102 -17 -20
-26 -17 -42 9 -69 23 -23 35 -26 277 -72 197 -37 290 -86 290 -152 0 -34 -24
-59 -71 -73 -75 -22 -238 -29 -415 -19 l-178 10 -29 35 c-41 50 -105 84 -242
130 -66 22 -120 44 -120 49 0 5 58 41 129 81 152 85 224 138 266 197 l31 43
122 22 c151 26 322 30 355 7z m-3664 -62 c71 -80 186 -89 456 -36 35 7 35 7
17 -14 -14 -16 -26 -19 -51 -15 -29 5 -40 -1 -97 -54 -35 -33 -89 -73 -119
-89 -30 -16 -87 -61 -128 -100 -63 -61 -73 -75 -70 -100 2 -21 9 -30 26 -32
26 -4 26 -3 7 -67 -9 -28 -16 -96 -18 -155 -2 -127 11 -165 58 -165 l30 0 1
-105 c0 -114 15 -166 56 -194 45 -32 136 -10 216 51 18 14 35 23 37 21 3 -2
-12 -30 -31 -63 -97 -161 -134 -262 -134 -367 0 -53 -3 -68 -15 -68 -8 0 -21
-11 -30 -24 -13 -19 -14 -35 -5 -97 6 -40 17 -96 25 -123 8 -27 13 -51 11 -54
-9 -8 -85 165 -111 252 -15 48 -46 180 -70 293 -25 122 -48 211 -58 220 -22
22 -63 10 -69 -21 -3 -14 0 -87 5 -163 10 -133 5 -233 -12 -233 -14 0 -31 135
-31 247 0 59 11 200 25 313 25 202 32 452 16 510 -6 21 -13 25 -43 25 l-36 0
15 35 c34 78 73 197 73 226 0 33 -15 54 -41 54 -20 0 -85 -69 -161 -170 -53
-71 -124 -150 -134 -150 -12 0 30 61 85 125 161 186 214 251 239 295 22 40 29
46 36 32 5 -9 18 -28 30 -40z m2161 -197 c44 -139 65 -175 103 -175 15 0 33 5
39 11 11 11 67 -57 159 -196 108 -161 105 -180 -7 -48 -154 182 -230 253 -271
253 -10 0 -27 -9 -39 -21 -17 -17 -20 -29 -15 -67 6 -53 -2 -36 -29 61 -9 32
-22 60 -30 63 -10 4 -11 12 -5 29 5 12 11 56 15 96 3 41 8 90 11 109 6 33 6
34 20 15 8 -11 30 -69 49 -130z m1681 -2 c33 -17 91 -41 129 -53 79 -26 175
-70 175 -80 0 -20 -100 -61 -181 -75 -36 -7 -36 -6 -43 34 -11 71 -85 135
-201 171 -44 14 -68 30 -44 30 8 0 30 13 49 29 l35 29 11 -27 c7 -17 33 -38
70 -58z m-2340 -88 c16 -8 37 -15 46 -15 30 0 27 -15 -9 -50 -43 -42 -66 -91
-57 -124 5 -23 1 -26 -78 -52 -107 -35 -231 -40 -254 -10 -42 58 9 115 183
204 65 34 123 61 129 62 7 0 25 -7 40 -15z m-1166 -56 c-7 -23 -25 -70 -41
-104 -26 -55 -35 -65 -84 -90 -31 -15 -58 -26 -60 -23 -3 3 13 33 36 68 47 74
150 202 156 196 2 -2 -1 -23 -7 -47z m283 -6 c53 -3 97 -8 97 -10 0 -3 -16
-24 -35 -47 -42 -52 -88 -148 -83 -177 2 -12 12 -28 23 -35 18 -12 34 -9 130
25 61 21 119 42 129 46 15 7 17 5 10 -8 -12 -20 -284 -321 -295 -325 -5 -2 -9
5 -9 16 0 19 -18 32 -45 32 -8 0 -39 -24 -69 -53 -92 -90 -158 -148 -189 -163
-40 -21 -71 0 -86 60 -16 63 -14 94 9 168 17 57 27 71 82 119 83 72 110 101
164 181 32 47 44 76 42 94 -4 37 -31 53 -59 36 -28 -18 -30 -14 -18 35 l11 41
46 -15 c26 -8 91 -17 145 -20z m3597 -85 c0 -7 18 -49 40 -93 88 -181 129
-356 111 -471 -11 -75 -29 -107 -74 -134 -38 -23 -45 -18 -72 55 -31 85 -53
115 -85 115 -61 0 -60 -30 2 -175 30 -68 30 -71 25 -195 -3 -69 -13 -152 -22
-185 -20 -74 -60 -137 -83 -133 -21 4 -56 66 -83 148 -12 36 -25 70 -29 75
-11 15 -100 274 -100 291 0 24 14 16 106 -61 95 -79 124 -90 149 -52 13 21 13
29 0 82 -9 32 -43 117 -76 189 -98 211 -93 200 -72 191 157 -64 278 -90 308
-65 22 18 18 57 -11 120 -36 78 -87 135 -166 188 l-70 46 46 12 c25 7 68 23
94 37 57 29 62 30 62 15z m-2335 -265 c9 -32 23 -70 31 -84 13 -25 10 -35 -37
-136 -77 -168 -80 -172 -147 -233 -96 -89 -145 -90 -157 -6 -15 95 54 256 196
458 43 62 79 121 79 130 0 9 -7 24 -16 32 -27 27 -57 19 -89 -25 -47 -65 -172
-176 -244 -219 -80 -46 -156 -70 -229 -70 l-54 0 32 39 c63 81 349 271 406
271 43 0 90 21 144 64 l45 36 12 -100 c6 -55 19 -126 28 -157z m-835 143 c0
-40 117 -106 189 -106 l26 0 -32 -30 c-18 -17 -41 -30 -52 -30 -61 0 -239 -73
-396 -162 -33 -19 -69 -37 -80 -42 -23 -8 -35 -23 121 149 55 61 124 140 153
177 50 62 71 75 71 44z m1275 -49 c28 -33 79 -91 113 -129 59 -62 64 -72 67
-118 5 -69 50 -164 162 -344 51 -82 93 -153 93 -158 0 -19 -80 54 -123 112
-25 32 -80 116 -123 186 -44 70 -98 147 -121 173 -41 46 -42 46 -70 30 -27
-15 -28 -17 -27 -100 0 -61 10 -124 36 -229 40 -161 52 -248 40 -300 l-8 -34
-23 32 c-37 52 -70 144 -106 298 -39 163 -41 176 -21 168 25 -10 55 15 61 50
6 31 -5 230 -21 379 -8 72 1 70 71 -16z m505 -38 c100 -25 193 -22 266 10 l47
21 154 -80 c256 -132 353 -211 353 -285 0 -55 -71 -105 -149 -105 -61 0 -132
26 -314 115 -224 110 -323 136 -376 99 -17 -12 -22 -24 -19 -45 3 -18 1 -26
-6 -21 -89 57 -97 65 -81 82 8 9 15 24 15 34 0 22 -60 153 -100 218 -16 26
-30 50 -30 52 0 2 35 -14 78 -35 42 -21 115 -48 162 -60z m1141 55 c77 -43
139 -94 162 -133 10 -17 16 -31 13 -31 -12 0 -134 49 -196 79 -93 44 -140 39
-140 -15 0 -32 42 -145 100 -270 28 -58 50 -108 50 -111 0 -2 -15 7 -33 21
-43 33 -99 56 -137 56 -29 0 -30 2 -30 43 0 81 -85 175 -230 254 -133 73 -132
68 -9 65 61 -2 140 1 176 8 64 11 155 49 168 70 9 14 33 6 106 -36z m-2446
-363 c-19 -45 -35 -89 -35 -97 0 -13 -3 -13 -22 0 -12 9 -25 16 -29 16 -3 0
-34 -23 -69 -51 -69 -55 -232 -141 -350 -184 -97 -35 -227 -46 -265 -21 -14 9
-25 24 -25 34 0 53 138 199 283 299 62 44 77 50 87 38 15 -17 96 -35 163 -35
71 0 166 24 235 59 31 16 58 28 59 27 2 -1 -13 -40 -32 -85z m495 19 c-6 -36
-16 -123 -24 -195 -17 -151 -47 -257 -84 -294 l-26 -26 -12 30 c-18 42 -17
145 2 218 9 34 37 102 64 152 26 49 56 111 65 138 10 26 19 46 21 44 2 -1 -1
-32 -6 -67z m713 -94 c103 -76 280 -191 365 -238 54 -30 72 -45 67 -56 -3 -8
-12 -92 -21 -185 -18 -214 -28 -253 -60 -260 -14 -2 -26 -1 -29 2 -2 4 -11 58
-19 121 -22 154 -40 208 -73 216 -14 4 -34 2 -44 -4 -14 -9 -18 -7 -24 16 -10
42 -76 168 -137 262 -68 106 -111 180 -103 180 3 0 38 -24 78 -54z m-598 -153
c35 -155 63 -249 86 -295 19 -38 19 -38 -1 -38 -22 0 -33 -16 -118 -170 -32
-59 -73 -112 -132 -172 -87 -88 -127 -111 -155 -88 -48 40 34 270 148 420 69
91 98 170 122 340 8 58 15 108 15 113 0 27 12 -9 35 -110z m1669 -125 c20 -54
32 -98 27 -98 -5 0 -42 37 -84 83 -41 45 -93 96 -116 112 -44 32 -51 45 -24
45 25 0 101 48 115 73 10 20 13 16 29 -48 10 -38 33 -114 53 -167z m-1167 -89
l49 -46 -100 -109 c-56 -60 -135 -140 -177 -177 -83 -74 -210 -170 -216 -163
-4 3 51 224 73 299 5 15 13 11 54 -27 54 -51 71 -55 99 -27 58 58 66 218 21
418 -16 73 -30 137 -30 140 0 4 40 -54 89 -128 48 -74 111 -155 138 -180z
m-2107 288 c0 -14 -54 -158 -79 -209 -31 -64 -85 -138 -101 -138 -13 0 -3 53
22 120 33 87 120 230 140 230 10 0 18 -1 18 -3z m2939 -67 l38 0 6 -87 c4 -53
23 -148 47 -238 22 -82 40 -161 40 -174 l0 -24 -26 24 c-14 13 -52 77 -84 142
l-59 119 20 27 c19 25 19 28 3 76 -13 37 -35 67 -83 115 l-67 66 64 -23 c34
-13 80 -23 101 -23z m-1999 23 c0 -40 24 -98 51 -125 16 -16 29 -31 29 -34 0
-6 -88 -86 -147 -131 -100 -78 -283 -157 -283 -122 0 23 58 130 97 178 45 57
235 251 246 251 4 0 7 -8 7 -17z m-897 -340 c-6 -255 0 -305 49 -403 52 -105
98 -103 132 6 13 42 51 287 57 369 2 32 33 -92 60 -239 46 -250 114 -417 177
-433 30 -7 42 6 80 87 22 46 27 73 30 168 3 62 8 110 12 105 4 -4 29 -61 54
-126 74 -189 130 -289 200 -361 50 -52 82 -69 104 -57 18 10 19 8 10 -42 -12
-62 -5 -161 13 -200 11 -24 18 -28 43 -24 17 2 39 7 48 11 13 6 29 -10 72 -66
60 -80 86 -132 86 -173 l0 -25 -42 26 c-110 68 -277 226 -448 422 -70 80 -94
94 -118 70 -18 -18 -15 -43 13 -98 14 -27 25 -53 25 -57 0 -16 -79 71 -188
207 -130 164 -205 245 -243 265 -22 12 -29 12 -48 -1 -11 -8 -21 -23 -21 -32
0 -9 30 -79 67 -154 37 -76 64 -141 60 -145 -12 -11 -74 24 -123 69 -70 65
-117 141 -230 373 -56 115 -124 244 -151 285 l-49 75 38 19 c66 31 135 111
185 213 25 51 47 93 48 93 2 0 1 -102 -2 -227z m1190 131 c4 -54 13 -91 31
-126 l25 -48 -40 -85 c-44 -92 -104 -156 -182 -194 -147 -71 -142 31 16 344
55 110 83 154 104 167 15 9 31 17 34 17 3 1 9 -33 12 -75z m-623 32 c0 -2 -19
-31 -41 -65 -47 -71 -88 -179 -89 -233 0 -39 19 -58 57 -58 17 0 19 -7 16 -57
-1 -32 -4 -108 -6 -168 -2 -61 -8 -119 -14 -129 -10 -18 -13 -16 -32 21 -28
55 -55 159 -86 323 -14 74 -33 164 -44 200 -10 36 -20 71 -22 79 -3 9 14 17
56 26 33 7 89 24 125 38 69 26 80 29 80 23z m-406 -61 c15 -9 16 -16 7 -57 -6
-25 -18 -107 -26 -180 -9 -74 -19 -148 -24 -164 l-8 -29 -13 40 c-16 52 -24
250 -15 360 l7 85 28 -22 c15 -13 35 -27 44 -33z m2564 12 c12 -12 51 -85 88
-162 36 -77 75 -152 85 -167 l20 -28 -93 7 c-92 5 -93 5 -121 -22 -16 -17 -30
-44 -34 -67 l-6 -40 -24 24 c-23 24 -23 25 -9 84 8 32 17 93 21 134 8 95 24
231 30 248 6 18 19 15 43 -11z m-475 -124 c36 -5 46 -19 28 -38 -5 -6 -35 -74
-66 -152 -56 -139 -58 -142 -85 -137 -37 8 -62 -18 -53 -54 14 -53 9 -73 -24
-99 l-33 -26 0 45 c0 62 21 126 85 261 30 63 60 139 67 167 9 40 15 49 27 44
9 -3 33 -8 54 -11z m-1388 -99 c-56 -130 -64 -211 -27 -276 22 -38 81 -68 133
-68 44 0 121 28 133 49 14 22 24 10 29 -36 4 -38 12 -54 41 -80 20 -19 30 -33
21 -33 -8 0 -31 -14 -51 -32 l-36 -32 -21 29 c-34 47 -93 105 -109 105 -39 0
-47 -22 -54 -147 -4 -68 -11 -123 -15 -123 -25 0 -106 140 -159 276 -23 60
-62 154 -86 208 -24 55 -43 100 -41 101 1 1 25 10 52 20 53 19 152 74 194 106
13 11 25 18 27 16 2 -2 -12 -39 -31 -83z m1521 -110 c8 -55 19 -113 25 -131 5
-17 12 -62 14 -100 2 -37 9 -89 15 -116 10 -37 10 -50 0 -62 -10 -12 -16 -13
-39 -1 -32 17 -92 74 -144 138 l-38 46 26 52 c15 29 42 94 62 144 19 50 39
102 44 115 5 13 12 21 15 18 3 -2 12 -49 20 -103z m-417 -84 c-38 -89 -51
-166 -39 -228 4 -26 7 -48 5 -50 -2 -2 -20 8 -42 22 -48 32 -119 57 -138 49
-9 -3 -20 -14 -26 -24 -12 -23 3 -61 76 -189 30 -53 58 -110 61 -128 6 -30 5
-32 -20 -32 -70 0 -153 71 -279 238 -78 102 -96 115 -129 90 -20 -15 -38 -132
-38 -241 0 -104 -13 -111 -34 -20 -26 113 -62 188 -110 229 l-41 35 42 -7 c58
-9 132 27 207 102 35 36 56 51 53 39 -25 -86 -15 -135 27 -135 46 0 263 150
386 267 36 33 66 60 68 59 1 -2 -12 -36 -29 -76z m201 -367 c17 -52 28 -98 25
-101 -5 -6 -117 69 -174 116 l-34 29 44 12 c24 7 55 21 69 31 13 10 28 16 32
14 4 -3 21 -48 38 -101z m-931 -21 c27 -39 46 -91 75 -207 13 -55 27 -107 30
-115 4 -10 -2 -19 -16 -25 -40 -17 -34 -56 22 -160 38 -71 47 -93 33 -88 -31
11 -100 61 -120 87 -10 13 -40 49 -67 80 l-49 56 17 58 c20 72 20 148 1 231
-13 52 -13 67 -3 80 31 39 50 40 77 3z m351 -675 c0 -20 7 -83 16 -140 9 -56
16 -154 17 -217 1 -97 -2 -122 -20 -162 -33 -72 -112 -100 -183 -63 -55 29
-90 138 -90 285 0 36 -5 92 -11 125 -12 64 -12 66 -9 138 2 45 4 48 24 42 70
-23 116 -28 141 -17 37 17 41 38 16 88 -11 25 -21 47 -21 50 0 2 27 -17 60
-43 54 -43 60 -52 60 -86z m-5857 -198 c53 -14 73 -48 58 -99 -16 -55 -52 -80
-113 -80 -27 0 -58 5 -68 10 -19 10 -19 11 -1 43 10 17 24 56 31 85 13 58 21
61 93 41z m-547 -16 c4 -10 19 -46 34 -80 l28 -61 -31 -30 c-37 -36 -82 -55
-108 -47 -31 10 -69 64 -69 99 0 41 22 71 78 107 54 34 61 35 68 12z m-221
-53 c-47 -90 22 -229 126 -254 33 -7 107 14 147 43 38 26 39 26 46 -4 9 -35
65 -96 103 -111 18 -8 53 -14 77 -14 56 0 105 39 132 103 l17 42 61 0 c107 1
192 70 211 172 l6 36 70 -5 c138 -10 313 -127 470 -314 191 -227 249 -300 249
-315 0 -9 -9 -41 -19 -72 -52 -149 -167 -230 -260 -183 -43 23 -109 101 -116
138 -3 18 -12 79 -20 135 -15 115 -18 123 -45 123 -36 0 -45 -37 -45 -180 1
-154 22 -254 101 -477 24 -68 44 -128 44 -133 0 -7 -83 -30 -109 -30 -5 0 -12
11 -15 25 -10 37 -61 90 -111 114 -72 34 -162 29 -238 -11 -71 -38 -186 -148
-206 -196 -8 -18 -19 -31 -25 -29 -6 2 -25 30 -43 63 -40 75 -108 137 -181
164 -84 32 -215 26 -295 -13 -65 -33 -107 -84 -107 -133 0 -35 -13 -44 -61
-44 -35 0 -35 -4 -8 147 29 157 32 424 6 527 -30 120 -104 256 -138 256 -24 0
-33 -14 -73 -115 -71 -176 -126 -231 -223 -226 -71 4 -156 161 -139 255 10 51
98 180 185 270 162 167 323 274 414 276 27 0 27 0 12 -30z m6301 -187 c32
-144 94 -219 196 -237 106 -19 192 51 234 189 10 33 19 62 21 64 6 9 74 -53
89 -81 40 -77 -9 -192 -101 -238 -43 -21 -64 -25 -145 -25 -171 0 -267 51
-329 177 -37 72 -40 125 -11 156 27 29 38 28 46 -5z m-121 -130 c34 -118 111
-197 233 -243 110 -41 254 -43 347 -4 94 39 169 133 181 227 7 51 11 54 52 33
15 -8 70 -24 122 -36 279 -65 302 -74 376 -142 60 -55 118 -146 204 -318 l72
-144 -68 -64 c-113 -103 -191 -172 -197 -172 -3 0 -16 19 -30 43 -58 98 -139
152 -188 126 -24 -12 -32 -161 -19 -374 13 -215 29 -359 76 -685 20 -135 39
-275 41 -311 5 -62 4 -67 -22 -87 -59 -47 -179 -59 -425 -42 -96 6 -317 15
-490 20 -328 9 -453 23 -538 60 -23 11 -45 26 -48 35 -4 9 4 105 17 213 33
274 33 607 1 799 -26 157 -29 245 -7 263 19 16 19 35 -1 54 -28 28 -57 18
-134 -49 l-75 -66 -34 38 c-58 67 -119 149 -137 186 l-17 36 45 53 c24 29 78
100 118 158 109 155 238 278 390 372 69 42 128 77 132 77 4 1 14 -25 23 -56z
m-6875 -330 c9 -27 20 -55 24 -63 16 -36 -97 -67 -125 -34 -17 21 -17 78 2
100 17 21 71 55 78 49 2 -3 12 -26 21 -52z m-44 -221 c0 -28 8 -42 37 -67 l36
-32 -51 -64 c-107 -134 -228 -268 -368 -409 -255 -255 -333 -317 -594 -466
-106 -60 -154 -95 -205 -146 -71 -74 -103 -85 -136 -48 -22 24 -16 51 25 111
50 74 34 106 -37 71 -118 -60 -165 -49 -92 21 39 37 60 47 169 80 286 87 378
129 530 243 257 192 450 413 563 644 l52 105 35 -3 c33 -3 35 -6 36 -40z
m8508 -258 c24 -94 147 -294 264 -429 134 -154 376 -401 472 -483 234 -197
338 -311 395 -433 31 -67 31 -79 3 -79 -40 0 -123 56 -186 125 -47 51 -66 66
-84 63 -33 -5 -33 -32 0 -75 31 -40 49 -83 35 -83 -5 0 -25 11 -44 24 -39 27
-89 96 -137 191 -41 81 -115 183 -202 280 -82 91 -247 288 -432 516 -70 86
-152 185 -183 220 l-56 64 67 63 c37 34 71 62 75 62 4 0 10 -12 13 -26z
m-6666 -131 c35 -26 55 -68 48 -99 -4 -13 -20 -39 -36 -58 -36 -41 -38 -71 -6
-105 34 -36 66 -101 66 -132 0 -82 -119 -122 -247 -84 -39 12 -121 57 -161 91
-2 1 1 12 8 23 9 17 15 19 30 11 42 -23 134 -2 127 29 -2 11 -11 15 -27 12
-14 -2 -41 -5 -60 -5 -32 -1 -35 1 -35 29 0 29 2 30 58 36 79 9 149 61 120 90
-9 9 -27 4 -74 -20 -34 -17 -70 -31 -80 -31 -9 0 -33 16 -52 35 l-35 35 29 30
c49 49 115 99 155 121 50 25 133 21 172 -8z m-681 -9 c52 -18 117 -61 140 -93
13 -19 11 -25 -13 -67 -27 -46 -27 -46 -74 -42 -25 3 -71 17 -102 31 -31 15
-61 27 -67 27 -22 0 -22 -23 0 -47 35 -38 97 -63 157 -63 37 0 52 -4 52 -14 0
-15 -87 -56 -117 -56 -29 0 -56 -24 -51 -46 5 -30 40 -28 110 9 61 32 67 33
71 16 5 -19 -37 -72 -145 -181 -114 -115 -232 -117 -253 -4 -17 86 24 182 104
247 35 27 41 38 39 63 -2 24 -13 36 -57 62 -116 67 -119 117 -11 155 68 23
154 24 217 3z m976 -117 c6 -18 6 -32 0 -38 -5 -5 -46 -12 -91 -16 -59 -4 -83
-10 -87 -21 -10 -28 11 -33 114 -30 99 3 101 3 111 -22 5 -14 49 -135 99 -270
173 -476 287 -737 382 -876 33 -48 104 -114 123 -114 18 0 40 -53 32 -78 -8
-24 -83 -65 -159 -87 -47 -13 -67 -15 -107 -6 -68 15 -134 50 -198 105 -30 25
-61 46 -70 46 -19 0 -52 -28 -52 -45 0 -29 -62 -105 -101 -126 -73 -37 -147
-16 -246 68 -69 58 -89 55 -126 -15 -35 -65 -81 -112 -132 -136 -30 -14 -55
-17 -114 -14 -93 5 -179 46 -254 120 -61 61 -83 62 -131 4 -99 -121 -218 -123
-339 -5 -34 32 -70 59 -81 59 -10 0 -43 -23 -72 -50 -103 -97 -274 -156 -427
-148 -94 5 -139 24 -167 71 -28 45 -25 78 11 123 70 86 194 287 259 419 108
219 192 453 270 755 32 126 40 145 56 142 11 -2 52 -6 92 -9 39 -3 72 -6 72
-7 0 0 -9 -25 -20 -54 -27 -71 -27 -171 1 -229 25 -52 91 -111 134 -119 l31
-6 -43 -126 c-45 -133 -51 -187 -21 -206 12 -7 56 -4 160 13 79 12 158 25 176
27 42 6 46 18 66 170 19 139 35 209 68 283 l23 53 44 -98 c68 -152 119 -294
133 -368 9 -45 19 -71 31 -77 12 -7 69 4 202 41 254 69 239 62 232 111 -7 54
-56 132 -149 238 l-76 88 45 7 c110 15 182 98 168 194 -4 26 -22 76 -40 111
l-34 64 19 28 c11 15 23 41 26 59 l7 31 70 -3 c67 -3 71 -4 80 -31z m-1382
-32 c45 -7 102 -61 79 -75 -25 -16 -200 -32 -200 -19 0 4 5 30 12 58 13 57 2
53 109 36z m572 -317 c-47 -52 -96 -190 -128 -365 l-17 -90 -100 -17 c-55 -9
-102 -15 -104 -13 -2 1 13 48 32 102 20 55 38 111 41 125 3 16 20 36 46 52 41
26 166 147 207 201 12 15 26 27 32 27 7 0 2 -10 -9 -22z m160 -23 c33 -31 64
-49 107 -63 43 -13 67 -27 79 -45 9 -14 53 -60 98 -102 79 -73 147 -159 140
-179 -4 -12 -260 -86 -268 -77 -4 3 -14 31 -24 61 -26 80 -94 224 -160 335
-45 76 -54 99 -44 106 21 13 22 12 72 -36z m5292 -806 c22 -5 198 -14 390 -19
193 -5 415 -14 494 -21 80 -6 190 -9 246 -6 l101 7 12 -113 c6 -61 28 -179 48
-262 96 -405 105 -453 111 -616 l6 -157 -24 -15 c-29 -18 -245 -47 -351 -47
-65 0 -81 3 -98 20 -11 11 -20 28 -20 38 0 10 -29 137 -65 282 -36 145 -65
267 -65 271 0 5 17 11 38 14 168 28 306 105 352 196 21 40 18 64 -10 79 -13 7
-35 -4 -96 -46 -152 -107 -233 -134 -399 -134 -155 0 -282 36 -492 137 -74 36
-106 39 -111 11 -9 -48 110 -126 288 -189 l105 -37 8 -58 c9 -64 1 -613 -9
-623 -11 -11 -328 -5 -418 8 l-88 13 6 77 c20 263 28 502 23 729 -5 238 -10
291 -42 440 -8 36 -4 38 60 21z m-5566 -556 c7 -49 36 -187 66 -308 67 -271
83 -364 63 -376 -30 -20 -115 -39 -172 -39 -79 0 -128 25 -137 69 -4 17 -10
169 -14 339 l-7 307 44 12 c24 6 64 28 88 47 25 19 48 35 51 35 3 1 11 -38 18
-86z m835 37 l42 0 12 -77 c7 -43 32 -163 57 -268 46 -199 71 -332 63 -340
-13 -14 -136 -36 -185 -33 l-58 3 -7 160 c-4 88 -8 253 -10 366 l-3 207 23 -9
c13 -5 42 -9 66 -9z m181 -907 c-10 -86 -63 -133 -124 -112 -44 15 -86 91
-110 200 l-8 37 76 -5 c42 -2 96 0 121 4 l45 9 3 -41 c2 -22 1 -63 -3 -92z
m-1088 72 c51 -6 157 6 199 22 31 12 9 -163 -28 -225 -29 -47 -89 -75 -150
-70 -88 9 -119 59 -126 201 l-5 98 26 -10 c14 -5 51 -13 84 -16z m6975 -63
c20 -48 41 -107 46 -130 9 -40 8 -44 -14 -59 -21 -13 -43 -15 -134 -9 -60 3
-116 9 -125 12 -12 5 -15 28 -15 135 l0 128 68 4 c37 2 83 4 102 5 35 2 35 2
72 -86z m-1095 32 l121 -6 7 -103 c8 -119 4 -140 -34 -160 -47 -24 -147 -36
-189 -22 -54 17 -69 57 -75 195 l-5 113 27 -5 c14 -3 81 -8 148 -12z m1160
-330 c-40 -35 -129 -58 -199 -51 -60 5 -121 35 -132 63 -5 14 -1 15 21 10 16
-4 80 -9 143 -13 89 -4 123 -2 150 9 45 20 52 12 17 -18z m-986 -1 c-65 -119
-263 -146 -350 -48 -17 20 -31 38 -31 40 0 2 16 -5 36 -17 72 -42 253 -30 323
22 32 24 34 24 22 3z"/>
<path d="M4830 11484 c-193 -51 -728 -301 -925 -431 -316 -209 -551 -490 -715
-854 -78 -174 -146 -417 -171 -609 -14 -113 -24 -138 -34 -89 -11 53 -113 305
-158 393 -84 162 -163 230 -268 231 -43 0 -65 -5 -86 -21 -106 -78 -121 -242
-39 -434 6 -14 -5 -16 -76 -17 -185 -1 -299 -111 -286 -276 17 -206 207 -332
571 -377 53 -7 97 -14 97 -16 0 -1 -23 -33 -50 -70 -122 -160 -219 -436 -267
-754 -20 -141 -23 -413 -4 -520 17 -98 66 -249 104 -325 105 -211 293 -386
498 -465 80 -31 255 -71 277 -63 6 3 12 16 12 29 0 28 0 28 -144 73 -345 109
-546 320 -625 657 -24 103 -45 323 -35 369 6 25 10 15 25 -62 74 -363 270
-632 582 -797 78 -41 107 -45 107 -17 0 12 -17 29 -46 46 -25 15 -90 63 -144
106 -249 200 -402 456 -457 763 -19 112 -20 342 -1 404 12 41 13 35 14 -100 1
-223 39 -380 137 -573 128 -249 345 -464 594 -585 69 -34 87 -39 99 -29 30 24
12 52 -59 91 -273 149 -492 400 -606 693 -63 161 -76 236 -75 415 1 134 5 168
28 255 15 55 28 101 30 102 1 1 0 -64 -2 -146 -5 -169 12 -307 54 -430 132
-386 421 -687 758 -790 59 -18 72 -19 83 -8 24 23 5 42 -90 88 -272 131 -492
343 -616 594 -52 103 -96 226 -106 292 -5 36 -4 35 13 -12 61 -163 202 -353
351 -473 118 -94 400 -215 463 -199 14 4 39 -15 96 -70 238 -233 519 -408 903
-562 219 -88 319 -114 410 -109 55 3 73 8 94 28 20 19 25 31 21 52 l-5 28 79
0 c98 0 133 11 128 43 -3 20 -16 25 -128 49 -478 105 -652 171 -932 357 -505
335 -894 782 -1195 1373 -47 92 -58 108 -79 108 -29 0 -31 -18 -9 -81 12 -32
13 -50 5 -73 -15 -43 -12 -135 6 -197 44 -147 300 -559 489 -784 59 -71 62
-77 28 -64 -49 18 -216 110 -293 162 -218 146 -338 369 -340 627 0 80 17 266
31 341 15 75 56 156 97 187 l32 25 0 -51 c0 -108 70 -231 210 -371 47 -47 104
-111 125 -141 121 -173 340 -399 548 -566 232 -186 627 -439 842 -540 228
-106 399 -149 595 -147 164 1 233 16 238 52 6 39 -18 50 -85 39 -102 -17 -284
-3 -416 31 -252 66 -481 182 -868 442 -219 147 -383 274 -511 397 -98 94 -197
205 -168 187 8 -5 58 -37 110 -70 382 -247 822 -487 1040 -568 115 -43 446
-132 550 -148 116 -18 230 4 230 44 -1 34 -18 40 -131 42 -96 2 -139 9 -274
44 -315 82 -512 159 -740 286 -205 115 -609 358 -725 435 -204 137 -262 188
-338 302 -91 137 -91 137 -51 106 148 -117 444 -312 644 -425 198 -112 408
-185 810 -284 301 -73 429 -92 625 -92 145 0 177 3 264 26 109 29 128 40 124
71 -4 25 -39 27 -190 8 -205 -25 -468 -9 -727 44 -297 61 -763 229 -985 355
-219 124 -588 373 -654 440 -31 32 -46 89 -19 72 73 -46 97 -67 85 -74 -9 -6
-6 -9 11 -9 13 0 49 -15 80 -34 31 -19 99 -56 151 -82 52 -26 167 -95 255
-154 404 -270 509 -304 1225 -400 189 -26 604 -39 638 -21 26 14 29 48 5 55
-31 9 -232 26 -428 36 -271 14 -397 27 -590 60 -290 50 -450 103 -623 206 -51
31 -92 57 -90 59 2 2 55 -11 118 -30 244 -70 700 -159 905 -175 66 -5 181 -14
255 -20 74 -6 163 -16 197 -23 67 -15 93 -8 93 23 0 53 -109 78 -380 90 -232
10 -300 19 -630 81 -485 92 -729 163 -917 268 -45 25 -81 46 -80 48 1 1 97
-28 212 -63 708 -220 987 -277 1350 -278 192 -1 367 17 386 40 9 11 7 20 -6
40 -13 21 -22 24 -42 19 -63 -15 -302 -24 -431 -14 -270 19 -451 54 -913 178
-309 83 -450 118 -587 147 l-82 17 57 37 58 36 60 -41 c119 -81 203 -95 585
-95 162 0 458 -5 658 -11 387 -12 502 -6 605 29 43 15 52 22 52 42 0 36 -38
41 -212 25 -209 -19 -1367 -19 -1488 0 -84 13 -196 53 -202 72 -2 6 40 35 94
66 144 81 269 142 254 123 -12 -15 0 -16 145 -16 264 0 384 14 689 79 77 16
237 41 355 56 223 27 248 35 235 74 -17 55 -210 37 -615 -61 -241 -57 -306
-68 -480 -78 -96 -6 -204 -17 -240 -24 -36 -8 -66 -13 -67 -12 -4 4 230 104
347 149 307 118 554 183 929 246 79 13 100 29 83 66 -15 32 -32 32 -209 -1
-502 -92 -998 -281 -1434 -545 -72 -43 -138 -79 -145 -79 -8 0 -17 -6 -20 -14
-9 -23 -154 -118 -171 -112 -18 7 13 36 256 240 334 279 577 444 871 591 260
130 433 189 590 200 122 9 130 11 130 40 0 66 -162 73 -342 16 -298 -96 -663
-294 -986 -535 -138 -105 -338 -272 -446 -375 l-59 -56 24 44 c51 94 235 267
619 581 364 298 532 417 743 524 149 76 283 130 376 151 90 21 136 51 136 89
0 41 -27 55 -62 34 -16 -9 -57 -24 -93 -32 -166 -42 -412 -159 -628 -299 -314
-202 -1013 -817 -1120 -985 -22 -34 -45 -86 -52 -115 -19 -82 -20 -86 -34 -81
-14 5 -12 31 4 69 5 11 21 49 36 85 94 232 255 489 450 720 76 90 367 382 494
495 315 280 591 412 850 403 85 -2 100 3 100 37 0 75 -197 91 -370 31 -84 -30
-253 -117 -343 -178 -187 -126 -568 -476 -749 -689 -210 -247 -354 -476 -470
-749 -25 -58 -49 -114 -54 -125 -6 -15 -10 -3 -12 44 -4 80 42 311 94 466 19
61 69 178 109 260 116 239 236 407 422 593 206 205 387 313 733 440 248 91
378 104 489 48 41 -20 57 -24 67 -15 34 28 2 93 -60 123 -84 40 -299 9 -556
-79 -145 -49 -406 -181 -520 -262 -115 -83 -297 -257 -390 -373 -134 -168
-265 -398 -340 -595 -39 -102 -29 -44 17 100 119 373 325 706 571 921 168 148
375 267 807 469 166 77 362 137 421 128 20 -3 36 1 47 12 22 22 21 41 -3 65
-24 24 -97 26 -180 4z m-2208 -1501 c47 -32 95 -96 141 -188 34 -68 143 -334
166 -405 16 -50 30 -130 22 -130 -3 0 -20 20 -38 43 -49 65 -162 178 -223 224
-31 23 -66 56 -78 72 -97 131 -145 287 -111 354 33 64 63 71 121 30z m-145
-465 c55 -17 68 -26 118 -89 32 -38 118 -127 191 -198 74 -71 134 -133 134
-136 0 -10 -219 4 -327 21 -192 29 -321 95 -380 194 -37 61 -41 99 -15 149 44
87 133 106 279 59z m426 -658 c-33 -82 -52 -189 -60 -334 -7 -132 -14 -126
-32 33 -12 95 1 221 25 259 15 23 84 102 89 102 1 0 -8 -27 -22 -60z m343
-552 c130 -215 296 -422 497 -621 292 -289 582 -488 932 -637 128 -55 315
-113 404 -125 49 -7 52 -8 37 -24 -27 -26 -98 -17 -262 34 -447 139 -779 334
-1102 649 -266 259 -672 867 -689 1033 -5 46 -2 41 60 -84 36 -72 91 -174 123
-225z"/>
<path d="M7706 8968 c-2 -13 -10 -70 -16 -128 -30 -272 -116 -565 -233 -795
-155 -307 -419 -598 -721 -797 -252 -166 -451 -245 -814 -324 -260 -56 -244
-51 -240 -82 l3 -27 125 0 c138 1 218 15 394 72 369 119 683 310 956 583 291
290 481 627 566 998 31 137 49 354 38 447 -8 61 -12 70 -31 73 -17 2 -23 -3
-27 -20z"/>
</g>
</svg>
