<?xml version="1.0" encoding="iso-8859-1"?>
<!-- Generator: Adobe Illustrator 19.0.0, SVG Export Plug-In . SVG Version: 6.00 Build 0)  -->
<svg version="1.1" id="Layer_1" xmlns="http://www.w3.org/2000/svg" xmlns:xlink="http://www.w3.org/1999/xlink" x="0px" y="0px"
	 viewBox="0 0 512.001 512.001" style="enable-background:new 0 0 512.001 512.001;" xml:space="preserve">
<g>
	<g>
		<path d="M436.989,79.416H75.011C33.65,79.416,0,113.067,0,154.427v203.147c0,41.362,33.65,75.011,75.011,75.011h361.978
			c41.362,0,75.011-33.65,75.012-75.012V154.427C512.001,113.067,478.351,79.416,436.989,79.416z M493.314,357.573
			c0,31.057-25.267,56.324-56.325,56.324H75.011c-31.058,0-56.324-25.267-56.324-56.324V154.427
			c0-31.057,25.266-56.324,56.324-56.324h361.978c31.058,0,56.325,25.267,56.325,56.324V357.573z"/>
	</g>
</g>
<g>
	<g>
		<path d="M333.893,248.843l-126.225-72.876c-2.89-1.669-6.453-1.669-9.344,0c-2.89,1.668-4.672,4.754-4.672,8.091V329.81
			c0,3.338,1.781,6.422,4.672,8.091c1.445,0.835,3.058,1.252,4.672,1.252c1.613,0,3.227-0.417,4.672-1.252l126.225-72.876
			c2.89-1.668,4.672-4.754,4.672-8.091C338.564,253.597,336.783,250.512,333.893,248.843z M212.34,313.627V200.242l98.194,56.693
			L212.34,313.627z"/>
	</g>
</g>
<g>
</g>
<g>
</g>
<g>
</g>
<g>
</g>
<g>
</g>
<g>
</g>
<g>
</g>
<g>
</g>
<g>
</g>
<g>
</g>
<g>
</g>
<g>
</g>
<g>
</g>
<g>
</g>
<g>
</g>
</svg>
