<?xml version="1.0" encoding="iso-8859-1"?>
<!-- Generator: Adobe Illustrator 19.0.0, SVG Export Plug-In . SVG Version: 6.00 Build 0)  -->
<svg version="1.1" id="Layer_1" xmlns="http://www.w3.org/2000/svg" xmlns:xlink="http://www.w3.org/1999/xlink" x="0px" y="0px"
	 viewBox="0 0 512 512" style="enable-background:new 0 0 512 512;" xml:space="preserve">
<g>
	<g>
		<path d="M256,0C126.613,0,21.333,105.28,21.333,234.667v160c0,37.525,27.904,68.352,64,73.579v1.088
			C85.333,492.864,104.469,512,128,512c23.531,0,42.667-19.136,42.667-42.667V320c0-23.531-19.136-42.667-42.667-42.667
			c-23.531,0-42.667,19.136-42.667,42.667v-85.333C85.333,140.565,161.899,64,256,64s170.667,76.565,170.667,170.667V320
			c0-23.531-19.136-42.667-42.667-42.667c-23.531,0-42.667,19.136-42.667,42.667v149.333C341.333,492.864,360.469,512,384,512
			c23.531,0,42.667-19.136,42.667-42.667v-1.088c36.096-5.227,64-36.075,64-73.579v-160C490.667,105.28,385.387,0,256,0z
			 M106.667,320c0-11.755,9.579-21.333,21.333-21.333c11.755,0,21.333,9.579,21.333,21.333v149.333
			c0,11.755-9.579,21.333-21.333,21.333c-11.755,0-21.333-9.579-21.333-21.333V320z M405.333,469.333
			c0,11.755-9.579,21.333-21.333,21.333c-11.755,0-21.333-9.579-21.333-21.333V320c0-11.755,9.579-21.333,21.333-21.333
			c11.755,0,21.333,9.579,21.333,21.333V469.333z M85.333,446.912c-24.299-4.949-42.667-26.517-42.667-52.245
			s18.368-47.296,42.667-52.245V446.912z M426.667,446.912V342.4c24.299,4.949,42.667,26.517,42.667,52.245
			S450.965,441.963,426.667,446.912z M469.333,342.571c-6.101-6.251-13.376-11.264-21.333-15.083v-92.821
			c0-105.856-86.144-192-192-192s-192,86.144-192,192v92.821c-7.957,3.819-15.232,8.832-21.333,15.083V234.667
			c0-117.632,95.701-213.333,213.333-213.333s213.333,95.701,213.333,213.333V342.571z"/>
	</g>
</g>
<g>
</g>
<g>
</g>
<g>
</g>
<g>
</g>
<g>
</g>
<g>
</g>
<g>
</g>
<g>
</g>
<g>
</g>
<g>
</g>
<g>
</g>
<g>
</g>
<g>
</g>
<g>
</g>
<g>
</g>
</svg>
