<?xml version="1.0" encoding="iso-8859-1"?>
<!-- Generator: Adobe Illustrator 19.0.0, SVG Export Plug-In . SVG Version: 6.00 Build 0)  -->
<svg version="1.1" id="Layer_1" xmlns="http://www.w3.org/2000/svg" xmlns:xlink="http://www.w3.org/1999/xlink" x="0px" y="0px"
	 viewBox="0 0 512 512" style="enable-background:new 0 0 512 512;" xml:space="preserve">
<g transform="translate(1 1)">
	<g>
		<path d="M391.533,442.733H246.467V190.659l20.239-18.672l13.04,13.04c1.707,1.707,3.413,2.56,5.973,2.56
			c2.56,0,4.267-0.853,5.973-2.56l54.613-54.613c3.413-3.413,3.413-8.533,0-11.947l-1.387-1.387
			c10.966-2.352,20.926-7.675,29.547-15.68c23.04-23.04,23.04-61.44,0-84.48C362.52,4.973,348.013-1,331.8-1
			c-16.213,0-30.72,5.973-42.667,17.067c-8.235,8.235-13.655,18.339-16.115,29.177c-1.472-1.243-3.034-1.87-5.219-1.87
			c-2.56,0-4.267,0.853-5.973,2.56l-54.613,54.613c-1.707,1.707-2.56,3.413-2.56,5.973s0.853,4.267,2.56,5.973l12.248,12.248
			L104.813,251.587c-3.413,3.413-3.413,8.533,0,11.947l23.893,24.747c1.707,1.707,3.413,2.56,5.973,2.56s4.267-0.853,5.973-2.56
			l37.547-34.64v189.093h-59.733c-33.28,0-59.733,26.453-59.733,59.733c0,5.12,3.413,8.533,8.533,8.533h375.467
			c5.12,0,8.533-3.413,8.533-8.533C451.267,469.187,424.813,442.733,391.533,442.733z M361.667,28.867
			c12.8,12.8,15.36,31.573,8.533,47.787c-10.24-8.533-20.48-17.92-29.013-26.453c-9.387-9.387-18.773-19.627-27.307-29.867
			C330.093,12.653,348.867,16.067,361.667,28.867z M300.061,30.858C308.914,41.523,318.783,52.543,329.24,63
			c9.227,9.227,20.226,19.041,31.522,27.976c-8.874,7.328-19.806,11.025-31.485,10.462l-39.391-39.391
			C288.61,50.493,292.206,39.674,300.061,30.858z M266.947,65.56l60.587,60.587L285.72,167.96l-11.056-11.056
			c-0.42-0.934-0.995-1.848-1.744-2.597l-35.84-35.84c-0.903-0.903-1.809-1.559-2.838-1.985l-9.109-9.109L266.947,65.56z
			 M173.311,201.406l30.706-34.091l21.116,20.271l-38.4,34.987l-17.067-17.067L173.311,201.406z M237.983,176.691l-22.581-22.016
			l15.704-17.435L255,161.133L237.983,176.691z M135.533,270.36l-12.8-12.8l35.268-39.156l16.666,16.176L135.533,270.36z
			 M195.267,239l34.133-31.289v235.022h-34.133V239z M76.653,493.933c4.267-19.627,21.333-34.133,41.813-34.133h68.267h51.2h153.6
			c20.48,0,37.547,14.507,41.813,34.133H76.653z"/>
	</g>
</g>
<g>
</g>
<g>
</g>
<g>
</g>
<g>
</g>
<g>
</g>
<g>
</g>
<g>
</g>
<g>
</g>
<g>
</g>
<g>
</g>
<g>
</g>
<g>
</g>
<g>
</g>
<g>
</g>
<g>
</g>
</svg>
