<?xml version="1.0" encoding="iso-8859-1"?>
<!-- Generator: Adobe Illustrator 19.0.0, SVG Export Plug-In . SVG Version: 6.00 Build 0)  -->
<svg version="1.1" id="Layer_1" xmlns="http://www.w3.org/2000/svg" xmlns:xlink="http://www.w3.org/1999/xlink" x="0px" y="0px"
	 viewBox="0 0 512 512" style="enable-background:new 0 0 512 512;" xml:space="preserve">
<g transform="translate(1 1)">
	<g>
		<g>
			<path d="M511,118.467c0-16.946-9.448-31.307-23.464-38.231C471.675,32.101,425.094-1,374.467-1
				c-29.867,0-72.533,22.187-80.213,26.453l-53.76,14.507C229.4,41.667,220.867,51.053,220.867,63v22.06
				c-69.464,8.369-123.66,65.484-127.743,135.807H63c-11.947,0-21.333,8.533-23.04,18.773l-14.507,54.613
				C21.187,301.933-1,344.6-1,374.467c0,50.627,33.101,97.208,81.235,113.07C87.16,501.552,101.521,511,118.467,511
				s31.307-9.448,38.231-23.464c48.135-15.862,81.235-62.442,81.235-113.07c0-29.867-23.04-73.387-26.453-80.213l-14.507-53.76
				c-1.707-11.093-11.093-19.627-23.04-19.627h-29.469c3.804-41.703,35.185-76.198,76.402-84.026v37.092
				c0,11.947,8.533,21.333,18.773,23.04l54.613,14.507c7.68,4.267,50.347,26.453,80.213,26.453
				c50.627,0,97.208-33.101,113.07-81.235C501.552,149.773,511,135.412,511,118.467z M425.667,118.467
				c0,0.146,0.009,0.289,0.011,0.434c-0.001,0.14-0.011,0.279-0.011,0.419c0,10.726,4.072,20.524,10.745,28.022
				c-11.253,23.498-35.758,39.391-61.945,39.391c-37.547,0-68.267-30.72-68.267-68.267S336.92,50.2,374.467,50.2
				c26.262,0,50.835,15.984,62.043,39.593C429.743,97.321,425.667,107.337,425.667,118.467z M147.14,436.51
				c-7.528-6.767-17.544-10.843-28.673-10.843c-11.13,0-21.146,4.077-28.674,10.843C66.184,425.301,50.2,400.729,50.2,374.467
				c0-37.547,30.72-68.267,68.267-68.267s68.267,30.72,68.267,68.267C186.733,400.729,170.75,425.301,147.14,436.51z
				 M92.867,468.333c0-4.749,1.195-9.128,3.304-12.876l2.67-3.337c5.032-5.87,11.714-9.26,19.232-9.376
				c14.28,0.232,25.141,11.236,25.141,25.589c0,3.413-0.853,5.973-1.707,9.387l-2.051,5.566
				c-4.565,6.514-12.139,10.647-20.989,10.647C103.96,493.933,92.867,482.84,92.867,468.333z M179.907,244.76l15.36,55.467
				l0.853,1.707c0.853,0,24.747,45.227,24.747,72.533c0,40.107-23.893,76.8-59.733,93.013c-0.007-0.19-0.025-0.377-0.035-0.566
				c-0.185-5.91-1.521-11.482-3.799-16.509c27.903-14.316,46.5-43.745,46.5-75.939c0-46.933-38.4-85.333-85.333-85.333
				s-85.333,38.4-85.333,85.333c0,32.194,18.597,61.623,46.5,75.938c-2.278,5.027-3.613,10.599-3.799,16.509
				c-0.009,0.189-0.028,0.376-0.035,0.566c-35.84-16.213-59.733-52.907-59.733-93.013c0-27.307,23.893-72.533,23.04-71.68
				L55.32,244.76c0.853-3.413,3.413-5.973,6.827-5.973H173.08C176.493,238.787,179.053,240.493,179.907,244.76z M109.933,220.867
				c0.997-14.152,4.322-27.697,9.594-40.247l14.51,9.673c-3.716,9.637-6.147,19.897-7.037,30.574H109.933z M141.472,174.737
				l-14.229-9.486c8.077-13.717,18.633-25.819,31.051-35.664l9.49,14.236C157.242,152.417,148.303,162.898,141.472,174.737z
				 M181.792,134.067l-9.446-14.17c14.569-8.678,30.993-14.537,48.521-16.79v17.067
				C206.801,122.319,193.605,127.133,181.792,134.067z M374.467,221.72c-27.307,0-71.68-24.747-72.533-24.747l-58.027-16.213
				c-3.413-0.853-5.973-3.413-5.973-6.827V127V92.867V63c0-3.413,2.56-5.973,6.827-5.973l55.467-15.36l1.707-0.853
				c0-0.853,45.227-24.747,72.533-24.747c39.803,0,76.234,23.54,92.631,59.764c-5.978,0.163-11.614,1.502-16.693,3.803
				c-14.316-27.903-43.745-46.5-75.939-46.5c-46.933,0-85.333,38.4-85.333,85.333s38.4,85.333,85.333,85.333
				c32.036,0,61.332-18.417,75.725-46.093c5.274,2.531,11.126,4.052,17.289,4.28C451.267,197.827,414.573,221.72,374.467,221.72z
				 M480.013,141.395l-2.293,0.965c-3.413,0.853-5.973,1.707-9.387,1.707c-4.749,0-9.128-1.195-12.876-3.304l-3.337-2.67
				c-5.973-5.12-9.387-11.947-9.387-19.627s3.413-14.507,9.387-19.627l3.337-2.67c3.748-2.108,8.127-3.304,12.876-3.304
				c3.413,0,5.973,0.853,9.387,2.56l5.566,2.051c6.514,4.565,10.647,12.139,10.647,20.989
				C493.933,128.721,488.386,137.264,480.013,141.395z"/>
			<path d="M127,272.067h34.133c5.12,0,8.533-3.413,8.533-8.533S166.253,255,161.133,255H127c-5.12,0-8.533,3.413-8.533,8.533
				S121.88,272.067,127,272.067z"/>
			<path d="M263.533,67.267c-5.12,0-8.533,3.413-8.533,8.533v34.133c0,5.12,3.413,8.533,8.533,8.533s8.533-3.413,8.533-8.533V75.8
				C272.067,70.68,268.653,67.267,263.533,67.267z"/>
		</g>
	</g>
</g>
<g>
</g>
<g>
</g>
<g>
</g>
<g>
</g>
<g>
</g>
<g>
</g>
<g>
</g>
<g>
</g>
<g>
</g>
<g>
</g>
<g>
</g>
<g>
</g>
<g>
</g>
<g>
</g>
<g>
</g>
</svg>
