<?xml version="1.0" encoding="iso-8859-1"?>
<!-- Generator: Adobe Illustrator 19.0.0, SVG Export Plug-In . SVG Version: 6.00 Build 0)  -->
<svg version="1.1" id="Layer_1" xmlns="http://www.w3.org/2000/svg" xmlns:xlink="http://www.w3.org/1999/xlink" x="0px" y="0px"
	 viewBox="0 0 511.512 511.512" style="enable-background:new 0 0 511.512 511.512;" xml:space="preserve">
<g>
	<g>
		<g>
			<path d="M457.289,175.683c0.469-5.12,0.981-10.283,1.365-15.36c3.925-51.349-11.691-104.085-39.787-134.4
				c-32.043-34.56-80.32-34.56-112.363,0c-28.075,30.315-43.691,83.072-39.787,134.4c0.384,5.099,0.725,10.581,1.088,15.872
				c-0.021,0.043-0.064,0.085-0.107,0.128c-1.6,3.413-1.067,7.147,0.789,10.112c2.475,38.464,4.331,79.915,5.888,114.645
				c1.088,24.256,2.027,45.76,2.987,61.739c0.277,4.779,0.491,10.112,0.704,15.872c1.877,49.685,5.035,132.821,73.941,132.821
				h10.667c43.221,0,68.331-53.611,74.667-159.36c1.237-20.992,5.013-50.304,9.024-81.344c3.349-26.069,7.061-54.805,9.877-83.157
				c2.667-3.221,3.307-7.829,1.216-11.776C457.417,175.789,457.332,175.747,457.289,175.683z M341.385,488.856h-0.021
				c-34.88-8.085-39.915-56.96-41.984-111.019c-0.235-5.909-0.427-11.435-0.725-16.341c-0.939-15.893-1.899-37.291-2.965-61.397
				c-1.365-30.955-2.987-67.349-5.077-102.208c21.461,8.32,42.325,13.227,60.523,14.379l-1.813,21.888h-18.603
				c-5.888,0-10.667,4.779-10.667,10.667s4.779,10.667,10.667,10.667h16.832l-1.771,21.333h-15.061
				c-5.888,0-10.667,4.779-10.667,10.667s4.779,10.667,10.667,10.667h13.269l-1.941,23.424
				c-19.157,7.509-32.661,36.117-32.661,72.576c0,36.032,13.205,64.32,32,72.235V488.856z M352.03,447.512
				c-8.704,0-21.333-20.779-21.333-53.333c0-32.555,12.629-53.333,21.333-53.333c8.704,0,21.333,20.779,21.333,53.333
				C373.364,426.733,360.734,447.512,352.03,447.512z M425.204,268.077c-4.245,32.768-7.872,61.077-9.173,82.795
				c-5.291,88.533-24.725,139.307-53.355,139.307v-23.765c18.795-7.915,32-36.224,32-72.235c0-35.584-12.907-63.573-31.317-71.893
				l2.005-24.107h18.645c5.888,0,10.667-4.779,10.667-10.667s-4.779-10.667-10.667-10.667h-16.853l1.771-21.333h15.083
				c5.888,0,10.667-4.779,10.667-10.667s-4.779-10.667-10.667-10.667h-13.312l1.835-22.101c19.029-2.027,42.944-7.787,61.099-13.952
				C431.092,222.061,428.062,246.019,425.204,268.077z M437.406,158.701c-0.405,5.248-0.939,10.603-1.408,15.936
				c-18.667,7.552-53.163,16.149-73.664,16.896c-20.053,0.576-46.784-5.909-73.301-17.387c-0.363-5.141-0.683-10.496-1.045-15.467
				c-3.413-44.971,10.304-92.501,34.176-118.251c12.053-12.992,25.685-19.584,40.533-19.584c14.848,0,28.48,6.592,40.533,19.605
				C427.081,66.2,440.82,113.731,437.406,158.701z"/>
			<path d="M92.638,25.923c-28.075,30.315-43.691,83.072-39.787,134.4c0.384,5.056,0.896,10.24,1.365,15.36
				c-0.064,0.085-0.128,0.128-0.192,0.213c-2.069,3.904-1.429,8.533,1.237,11.755c2.816,28.352,6.507,57.045,9.856,83.136
				c3.989,31.04,7.765,60.373,9.024,81.344c6.315,105.749,31.424,159.36,74.645,159.36h10.667
				c68.907,0,72.064-83.136,73.963-132.821c0.213-5.739,0.427-11.093,0.704-15.872c0.96-15.979,1.899-37.504,2.987-61.739
				c1.536-34.731,3.413-76.16,5.888-114.624c1.856-2.965,2.389-6.699,0.789-10.112c-0.021-0.043-0.064-0.085-0.107-0.128
				c0.363-5.291,0.683-10.795,1.088-15.893c3.904-51.328-11.712-104.085-39.787-134.4C172.958-8.637,124.681-8.637,92.638,25.923z
				 M95.454,350.851c-1.301-21.717-4.949-50.027-9.173-82.795c-2.859-22.059-5.888-45.995-8.448-69.931
				c18.155,6.165,42.069,11.925,61.099,13.952l1.835,22.08h-13.291c-5.888,0-10.667,4.779-10.667,10.667s4.779,10.667,10.667,10.667
				h15.083l1.771,21.333h-16.853c-5.888,0-10.667,4.779-10.667,10.667s4.779,10.667,10.667,10.667H146.1l2.005,24.107
				c-18.411,8.32-31.317,36.309-31.317,71.893c0,36.032,13.205,64.32,32,72.235v23.786
				C120.17,490.153,100.744,439.383,95.454,350.851z M159.476,447.512c-8.704,0-21.333-20.779-21.333-53.333
				c0-32.555,12.629-53.333,21.333-53.333c8.704,0,21.333,20.779,21.333,53.333C180.809,426.733,168.18,447.512,159.476,447.512z
				 M215.796,300.141c-1.067,24.107-2.027,45.504-2.965,61.397c-0.277,4.928-0.491,10.432-0.725,16.341
				c-2.048,54.037-7.083,102.912-41.963,110.997v-22.464c18.795-7.915,32-36.224,32-72.235c0-36.459-13.504-65.088-32.661-72.597
				l-1.941-23.403h13.291c5.888,0,10.667-4.779,10.667-10.667s-4.779-10.667-10.667-10.667h-15.083l-1.771-21.333h16.832
				c5.888,0,10.667-4.779,10.667-10.667s-4.779-10.667-10.667-10.667h-18.624l-1.835-21.888c18.197-1.152,39.04-6.059,60.523-14.379
				C218.782,232.792,217.161,269.165,215.796,300.141z M223.476,158.701c-0.384,4.992-0.704,10.325-1.045,15.488
				c-26.539,11.456-53.376,17.941-73.237,17.344c-20.501-0.725-55.04-9.365-73.685-16.896c-0.491-5.333-1.024-10.731-1.429-15.957
				c-3.413-44.971,10.304-92.501,34.176-118.251c12.053-12.992,25.685-19.584,40.533-19.584s28.48,6.592,40.512,19.605
				C213.193,66.2,226.91,113.731,223.476,158.701z"/>
		</g>
	</g>
</g>
<g>
</g>
<g>
</g>
<g>
</g>
<g>
</g>
<g>
</g>
<g>
</g>
<g>
</g>
<g>
</g>
<g>
</g>
<g>
</g>
<g>
</g>
<g>
</g>
<g>
</g>
<g>
</g>
<g>
</g>
</svg>
