<?xml version="1.0" encoding="iso-8859-1"?>
<!-- Generator: Adobe Illustrator 19.0.0, SVG Export Plug-In . SVG Version: 6.00 Build 0)  -->
<svg version="1.1" id="Layer_1" xmlns="http://www.w3.org/2000/svg" xmlns:xlink="http://www.w3.org/1999/xlink" x="0px" y="0px"
	 viewBox="0 0 512 512" style="enable-background:new 0 0 512 512;" xml:space="preserve">
<g>
	<g>
		<path d="M501.282,267.238c0-2.984-2.406-5.43-5.344-5.445c-19.469-0.742-62.376-4.984-101.283-26.789V76.501L318.154,0H10.657
			v447.999v21.345h21.336h279.442c15.656,16.5,32.095,30.516,48.188,41.734c0.906,0.625,1.969,0.922,3.031,0.922
			s2.125-0.297,3.031-0.922l0.844-0.578c62.891-44.219,130.986-130.846,134.814-242.309L501.282,267.238z M319.998,32.001
			l42.657,42.665h-42.657V32.001z M31.994,447.997V21.336h266.66v74.666h74.674v124.744c-2.375-1.883-4.703-3.852-7.016-5.915
			l-0.875-0.492l0.031-0.164c-0.844-0.531-1.828-0.82-2.844-0.836c-1.281,0.016-2.563,0.523-3.563,1.438
			c-21.75,19.571-47.657,31.04-71.252,37.758c0.078-2.383,0.125-4.773,0.125-7.195c0-3.266-0.094-6.438-0.25-9.531
			c27.595-13.25,32.017-41.001,32.188-42.243v-0.008c0.063-0.508,0.125-1.023,0.125-1.555c0-5.891-4.781-10.664-10.672-10.664
			c-5.36,0-9.782,3.961-10.548,9.109c-0.031,0.156-2.125,13.29-14.063,22.297c-5.906-27.118-19.797-45.368-40.336-55.079
			l20.859-34.853l-0.008-0.008c0.961-1.602,1.523-3.469,1.523-5.469c0-5.891-4.773-10.672-10.664-10.672
			c-3.891,0-7.281,2.086-9.141,5.195l-0.016-0.008l-23.493,39.25c-6.5-1.172-13.43-1.766-20.782-1.766
			c-7.313,0-14.219,0.586-20.695,1.758l-23.485-39.243l-0.008,0.008c-1.867-3.109-5.258-5.195-9.149-5.195
			c-5.891,0-10.664,4.781-10.664,10.672c0,2,0.563,3.867,1.523,5.469l-0.008,0.008l20.844,34.821
			c-20.586,9.695-34.516,27.961-40.422,55.118c-11.711-8.852-13.977-21.727-14.086-22.391l0.008,0.086h-0.008
			c-0.758-5.148-5.18-9.109-10.54-9.109c-5.891,0-10.672,4.773-10.672,10.664c0,0.531,0.055,1.047,0.125,1.555l-0.008,0.008
			c0.18,1.242,4.602,29.009,32.212,42.251c-0.156,3.094-0.242,6.266-0.242,9.523c0,3.594,0.078,7.148,0.234,10.664H85.322
			c-5.891,0-10.664,4.773-10.664,10.672c0,5.884,4.773,10.665,10.664,10.665h34.267c1.641,11.203,4.219,21.719,7.82,31.297
			c-26.805,13.422-31.125,40.579-31.305,41.813h0.016c-0.078,0.516-0.125,1.031-0.125,1.547c0,5.906,4.773,10.688,10.665,10.688
			c5.359,0,9.781-3.969,10.539-9.125h0.016c0.023-0.188,2.742-17.188,19.641-25.782c13.688,21.548,35.103,34.907,65.806,34.907
			c14.586,0,27.063-3.031,37.626-8.5c12.531,35.609,31.203,67.188,52.539,93.813H31.994z M233.794,333.31
			c-5.977,3.735-12.774,6.157-20.47,7.282V224.004h51.798c0.984,6.523,1.477,13.633,1.477,21.336c0,4.195-0.109,8.281-0.328,12.258
			c-15.234,2.867-28.266,3.867-36.758,4.195c-3.07,0.016-5.461,2.461-5.477,5.445l-0.055,1.406
			C224.793,291.278,228.262,312.872,233.794,333.31z M146.003,202.667c2.555-5.907,5.766-10.985,9.633-15.188
			c10.258-11.156,26.079-16.805,47.024-16.805c20.946,0,36.767,5.648,47.024,16.805c3.867,4.203,7.078,9.281,9.633,15.188H146.003z
			 M191.996,224.004v116.588c-15.945-2.344-28.079-10.188-36.891-23.845c-10.719-16.625-16.383-41.313-16.383-71.407
			c0-7.703,0.492-14.813,1.477-21.336H191.996z M362.655,486.891c-28.798-21.969-55.095-51.032-74.846-82.86
			c-12.5-20.142-22.438-41.392-29.508-63.142c-6.258-19.235-10.32-38.97-12.109-58.876c13.063-1.297,29.117-3.828,46.414-8.656
			c26.954-7.556,50.455-18.923,70.049-33.876c19.594,14.961,43.109,26.336,70.095,33.892c17.25,4.813,33.282,7.344,46.376,8.625
			C470.876,373.795,415.89,446.28,362.655,486.891z"/>
	</g>
</g>
<g>
	<g>
		<path d="M362.655,298.669c-5.891,0-10.656,4.781-10.656,10.672v106.658c0,5.906,4.766,10.672,10.656,10.672
			s10.672-4.766,10.672-10.672V309.341C373.327,303.45,368.546,298.669,362.655,298.669z"/>
	</g>
</g>

</svg>
