<?xml version="1.0" encoding="iso-8859-1"?>
<!-- Generator: Adobe Illustrator 19.0.0, SVG Export Plug-In . SVG Version: 6.00 Build 0)  -->
<svg version="1.1" id="Layer_1" xmlns="http://www.w3.org/2000/svg" xmlns:xlink="http://www.w3.org/1999/xlink" x="0px" y="0px"
	 viewBox="0 0 512 512" style="enable-background:new 0 0 512 512;" xml:space="preserve">
<g>
	<g>
		<path d="M255.999,152.462c-72.513,0-131.508,58.994-131.508,131.508c0,72.514,58.995,131.508,131.508,131.508
			c72.514,0,131.508-58.994,131.508-131.508C387.507,211.456,328.514,152.462,255.999,152.462z M255.999,394.539
			c-60.968,0-110.57-49.601-110.57-110.57c0-60.969,49.601-110.57,110.57-110.57c60.969,0,110.57,49.601,110.57,110.57
			C366.569,344.938,316.969,394.539,255.999,394.539z"/>
	</g>
</g>
<g>
	<g>
		<path d="M255.999,201.915c-45.245,0-82.055,36.809-82.055,82.055c0,45.245,36.81,82.054,82.055,82.054
			c45.246,0,82.055-36.809,82.055-82.054C338.054,238.724,301.245,201.915,255.999,201.915z M255.999,346.187
			c-34.307,0-62.218-27.91-62.218-62.217c0-34.307,27.911-62.218,62.218-62.218s62.218,27.911,62.218,62.218
			C318.218,318.277,290.307,346.187,255.999,346.187z"/>
	</g>
</g>
<g>
	<g>
		<path d="M49.173,175.694c-6.086,0-11.02,4.935-11.02,11.02s4.934,11.02,11.02,11.02c9.115,0,16.53,7.416,16.53,16.53v139.41
			c0,9.115-7.416,16.53-16.53,16.53c-6.086,0-11.02,4.935-11.02,11.02s4.934,11.02,11.02,11.02
			c21.268,0,38.571-17.303,38.571-38.571v-139.41C87.744,192.997,70.441,175.694,49.173,175.694z"/>
	</g>
</g>
<g>
	<g>
		<path d="M462.825,370.205c-9.115,0-16.53-7.416-16.53-16.53V214.266c0-9.116,7.416-16.53,16.53-16.53
			c6.085,0,11.02-4.935,11.02-11.02s-4.935-11.02-11.02-11.02c-21.268,0-38.571,17.303-38.571,38.571v139.408
			c0,21.268,17.303,38.571,38.571,38.571c6.085,0,11.02-4.935,11.02-11.02S468.911,370.205,462.825,370.205z"/>
	</g>
</g>
<g>
	<g>
		<path d="M478.939,114.334H344.134l-13.77-37.501c-4.044-11.031-14.668-18.437-26.416-18.437H208.05
			c-11.759,0-22.371,7.406-26.416,18.437l-13.77,37.501h-45.806v-14.7c0-11.847-9.643-21.49-21.49-21.49H68.853
			c-11.847,0-21.49,9.643-21.49,21.49v14.7H33.061C14.831,114.334,0,129.165,0,147.395v273.148c0,18.23,14.831,33.061,33.061,33.061
			h445.878c18.23,0,33.061-14.831,33.061-33.061V147.395C512,129.165,497.169,114.334,478.939,114.334z M202.32,84.426
			c0.882-2.38,3.185-3.989,5.731-3.989h95.898c2.546,0,4.849,1.609,5.731,3.989l10.978,29.908H191.34L202.32,84.426z M68.3,99.637
			c0-0.303,0.247-0.551,0.551-0.551h31.72c0.304,0,0.551,0.248,0.551,0.551v14.697H68.3V99.637z M489.959,420.543
			c0,6.077-4.944,11.02-11.02,11.02H33.061c-6.077,0-11.02-4.944-11.02-11.02V147.395c0-6.077,4.944-11.02,11.02-11.02h445.878
			c6.077,0,11.02,4.944,11.02,11.02V420.543z"/>
	</g>
</g>
<g>
	<g>
		<path d="M255.999,243.426c-22.356,0-40.544,18.188-40.544,40.544c0,5.478,4.44,9.918,9.918,9.918s9.918-4.44,9.918-9.918
			c0-11.418,9.289-20.707,20.707-20.707c5.478,0,9.918-4.44,9.918-9.918C265.918,247.867,261.478,243.426,255.999,243.426z"/>
	</g>
</g>
<g>
</g>
<g>
</g>
<g>
</g>
<g>
</g>
<g>
</g>
<g>
</g>
<g>
</g>
<g>
</g>
<g>
</g>
<g>
</g>
<g>
</g>
<g>
</g>
<g>
</g>
<g>
</g>
<g>
</g>
</svg>
