<?xml version="1.0" encoding="iso-8859-1"?>
<!-- Generator: Adobe Illustrator 19.0.0, SVG Export Plug-In . SVG Version: 6.00 Build 0)  -->
<svg version="1.1" id="Layer_1" xmlns="http://www.w3.org/2000/svg" xmlns:xlink="http://www.w3.org/1999/xlink" x="0px" y="0px"
	 viewBox="0 0 512 512" style="enable-background:new 0 0 512 512;" xml:space="preserve">
<g>
	<g>
		<path d="M490.656,48.004c0-5.891-4.766-10.664-10.656-10.664s-10.656,4.773-10.656,10.664H448c0-5.891-4.781-10.664-10.656-10.664
			H416c-5.891,0-10.656,4.773-10.656,10.664H384c0-5.891-4.781-10.664-10.656-10.664H352c-5.891,0-10.656,4.773-10.656,10.664H320
			c0-5.891-4.781-10.664-10.656-10.664H288c-5.891,0-10.656,4.773-10.656,10.664H0V474.66h512v-128V176.004v-128
			C512,48.004,490.656,48.004,490.656,48.004z M490.656,218.668v42.672v42.664v21.344h-21.313v-21.344V261.34v-42.672V197.34h21.313
			V218.668z M490.656,176.004H448V346.66h42.656v106.688H21.336V69.34h469.32V176.004z"/>
	</g>
</g>
<g>
	<g>
		<path d="M42.664,90.668v64h64v-64H42.664z M85.336,133.34H64v-21.336h21.336V133.34z"/>
	</g>
</g>
<g>
	<g>
		<path d="M42.664,346.66v42.688c0,0,0,42.656,42.672,42.656c42.664,0,149.328,0,149.328,0V346.66H42.664z M213.336,410.66h-128
			c-11.477,0-15.453-4.406-17.836-8.734c-2.695-4.891-3.438-10.797-3.5-12.766v-21.156h149.336V410.66z"/>
	</g>
</g>
<g>
	<g>
		<path d="M53.336,176.004c-5.891,0-10.672,4.773-10.672,10.664V314.66c0,5.906,4.781,10.688,10.672,10.688S64,320.567,64,314.66
			V186.668C64,180.777,59.227,176.004,53.336,176.004z"/>
	</g>
</g>
<g>
	<g>
		<path d="M96,176.004c-5.891,0-10.664,4.773-10.664,10.664V314.66c0,5.906,4.773,10.688,10.664,10.688s10.664-4.781,10.664-10.688
			V186.668C106.664,180.777,101.891,176.004,96,176.004z"/>
	</g>
</g>
<g>
	<g>
		<path d="M224,176.004c-5.891,0-10.664,4.773-10.664,10.664V314.66c0,5.906,4.773,10.688,10.664,10.688s10.664-4.781,10.664-10.688
			V186.668C234.664,180.777,229.891,176.004,224,176.004z"/>
	</g>
</g>
<g>
	<g>
		<path d="M181.336,176.004c-5.891,0-10.672,4.773-10.672,10.664V314.66c0,5.906,4.781,10.688,10.672,10.688S192,320.566,192,314.66
			V186.668C192,180.777,187.227,176.004,181.336,176.004z"/>
	</g>
</g>
<g>
	<g>
		<path d="M458.656,410.66H266.664c-5.891,0-10.664,4.781-10.664,10.688c0,5.875,4.773,10.656,10.664,10.656h191.992
			c5.906,0,10.688-4.781,10.688-10.656C469.344,415.441,464.563,410.66,458.656,410.66z"/>
	</g>
</g>
<g>
	<g>
		<path d="M458.656,368.004H266.664c-5.891,0-10.664,4.781-10.664,10.656c0,5.906,4.773,10.688,10.664,10.688h191.992
			c5.906,0,10.688-4.781,10.688-10.688C469.344,372.785,464.563,368.004,458.656,368.004z"/>
	</g>
</g>
<g>
	<g>
		<path d="M458.656,133.34H266.664c-5.891,0-10.664,4.773-10.664,10.664c0,5.891,4.773,10.664,10.664,10.664h191.992
			c5.906,0,10.688-4.773,10.688-10.664C469.344,138.113,464.563,133.34,458.656,133.34z"/>
	</g>
</g>
<g>
	<g>
		<path d="M458.656,90.668H266.664c-5.891,0-10.664,4.781-10.664,10.672c0,5.891,4.773,10.664,10.664,10.664h191.992
			c5.906,0,10.688-4.773,10.688-10.664C469.344,95.449,464.563,90.668,458.656,90.668z"/>
	</g>
</g>
<g>
	<g>
		<path d="M480,208.004c-5.89,0-10.656,4.773-10.656,10.664c0,5.891,4.765,10.672,10.656,10.672s10.656-4.781,10.656-10.672
			S485.89,208.004,480,208.004z"/>
	</g>
</g>
<g>
	<g>
		<path d="M480,250.668c-5.89,0-10.656,4.781-10.656,10.672s4.765,10.664,10.656,10.664s10.656-4.773,10.656-10.664
			S485.89,250.668,480,250.668z"/>
	</g>
</g>
<g>
	<g>
		<path d="M480,293.348c-5.891,0-10.656,4.766-10.656,10.656S474.109,314.66,480,314.66s10.656-4.766,10.656-10.656
			S485.891,293.348,480,293.348z"/>
	</g>
</g>
<g>
	<g>
		<path d="M138.664,176.004c-5.891,0-10.664,4.773-10.664,10.664c0,5.891,4.773,10.672,10.664,10.672s10.672-4.781,10.672-10.672
			S144.555,176.004,138.664,176.004z"/>
	</g>
</g>
<g>
	<g>
		<path d="M138.664,90.668c-5.891,0-10.664,4.781-10.664,10.672c0,5.891,4.773,10.664,10.664,10.664s10.672-4.773,10.672-10.664
			C149.336,95.449,144.555,90.668,138.664,90.668z"/>
	</g>
</g>
<g>
	<g>
		<path d="M181.336,133.34c-5.891,0-10.672,4.773-10.672,10.664c0,5.891,4.781,10.664,10.672,10.664S192,149.895,192,144.004
			C192,138.113,187.227,133.34,181.336,133.34z"/>
	</g>
</g>
<g>
	<g>
		<path d="M160,112.004c-5.891,0-10.664,4.773-10.664,10.664c0,5.891,4.773,10.672,10.664,10.672s10.664-4.781,10.664-10.672
			C170.664,116.777,165.891,112.004,160,112.004z"/>
	</g>
</g>
<g>
	<g>
		<path d="M181.336,90.668c-5.891,0-10.672,4.781-10.672,10.672c0,5.891,4.781,10.664,10.672,10.664S192,107.231,192,101.34
			C192,95.449,187.227,90.668,181.336,90.668z"/>
	</g>
</g>
<g>
	<g>
		<path d="M138.664,133.34c-5.891,0-10.664,4.773-10.664,10.664s4.773,10.664,10.664,10.664s10.672-4.773,10.672-10.664
			C149.336,138.113,144.555,133.34,138.664,133.34z"/>
	</g>
</g>
<g>
	<g>
		<circle cx="224" cy="144" r="10.664"/>
	</g>
</g>
<g>
	<g>
		<path d="M202.664,112.004c-5.891,0-10.664,4.773-10.664,10.664c0,5.891,4.773,10.672,10.664,10.672s10.672-4.781,10.672-10.672
			C213.336,116.777,208.555,112.004,202.664,112.004z"/>
	</g>
</g>
<g>
	<g>
		<path d="M224,90.668c-5.891,0-10.664,4.781-10.664,10.672c0,5.891,4.773,10.664,10.664,10.664s10.664-4.773,10.664-10.664
			C234.664,95.449,229.891,90.668,224,90.668z"/>
	</g>
</g>
<g>
	<g>
		<path d="M138.664,304.004c-5.891,0-10.664,4.781-10.664,10.656c0,5.906,4.773,10.688,10.664,10.688s10.672-4.781,10.672-10.688
			C149.336,308.785,144.555,304.004,138.664,304.004z"/>
	</g>
</g>
<g>
	<g>
		<path d="M138.664,218.668c-5.891,0-10.664,4.781-10.664,10.672v42.664c0,5.891,4.773,10.656,10.664,10.656
			s10.672-4.766,10.672-10.656V229.34C149.336,223.449,144.555,218.668,138.664,218.668z"/>
	</g>
</g>
<g>
	<g>
		<path d="M181.336,378.66H96c-5.891,0-10.664,4.781-10.664,10.688c0,5.875,4.773,10.656,10.664,10.656h85.336
			c5.891,0,10.664-4.781,10.664-10.656C192,383.442,187.227,378.66,181.336,378.66z"/>
	</g>
</g>
<g>
	<g>
		<path d="M416,220.004v-33.336h-33.328c-12.25-6.789-26.344-10.664-41.328-10.664c-15,0-29.094,3.875-41.344,10.664h-33.336v33.336
			C259.875,232.254,256,246.34,256,261.34c0,14.992,3.875,29.086,10.664,41.32v33.344H300c12.25,6.797,26.344,10.656,41.344,10.656
			c14.984,0,29.078-3.859,41.313-10.656H416V302.66c6.797-12.234,10.656-26.328,10.656-41.32
			C426.656,246.34,422.797,232.254,416,220.004z M392.156,222.488c5.656,7.375,9.734,16.016,11.75,25.414
			c-4.844-0.938-10.609-1.898-16.781-2.609c-6.75-0.773-13-1.117-18.75-1.047c-0.5-0.781-1.016-1.547-1.578-2.281
			C374.375,234.84,383.688,227.879,392.156,222.488z M346.453,218.231c0.891-7.899,2.297-15.196,3.391-20.329
			c9.563,1.281,18.469,4.672,26.219,9.703c-4.078,2.758-8.844,6.148-13.688,10.008c-5.344,4.234-10,8.406-14,12.508
			c-0.906-0.203-1.828-0.367-2.766-0.492C345.718,226.066,346,222.254,346.453,218.231z M327.906,198.762
			c-0.938,4.836-1.906,10.609-2.625,16.781c-0.766,6.766-1.109,13.008-1.031,18.75c-0.797,0.492-1.563,1.023-2.281,1.578
			c-7.125-7.57-14.094-16.891-19.484-25.352C309.859,204.863,318.5,200.777,327.906,198.762z M287.594,226.613
			c2.75,4.078,6.156,8.836,10,13.688c4.25,5.328,8.422,9.992,12.531,14c-0.219,0.906-0.375,1.828-0.5,2.758
			c-3.563-0.109-7.375-0.391-11.406-0.844c-7.891-0.891-15.188-2.281-20.313-3.398C279.188,243.262,282.563,234.363,287.594,226.613
			z M290.516,300.191c-5.656-7.375-9.734-16.016-11.766-25.406c4.844,0.938,10.625,1.891,16.781,2.594
			c6.219,0.719,12.031,1.063,17.375,1.063c0.469,0,0.922,0,1.375,0c0.5,0.781,1.031,1.531,1.594,2.266
			C308.297,287.832,298.969,294.785,290.516,300.191z M336.22,304.441c-0.907,7.907-2.282,15.204-3.407,20.329
			c-9.563-1.281-18.453-4.672-26.203-9.703c4.078-2.75,8.828-6.156,13.688-10c5.328-4.234,9.984-8.406,14-12.516
			c0.906,0.203,1.828,0.359,2.766,0.484C336.939,296.598,336.658,300.41,336.22,304.441z M341.344,272.004
			c-5.891,0-10.688-4.789-10.688-10.664c0-5.883,4.797-10.672,10.688-10.672c5.875,0,10.656,4.789,10.656,10.672
			C352,267.215,347.219,272.004,341.344,272.004z M354.781,323.91c0.922-4.844,1.891-10.609,2.594-16.781
			c0.781-6.75,1.125-13,1.063-18.75c0.781-0.5,1.531-1.016,2.266-1.578c7.125,7.578,14.078,16.891,19.484,25.359
			C372.813,317.816,364.172,321.895,354.781,323.91z M395.063,296.066c-2.75-4.094-6.156-8.844-10-13.688
			c-4.234-5.344-8.406-10-12.516-14c0.203-0.906,0.359-1.828,0.484-2.766c3.563,0.109,7.375,0.391,11.406,0.844
			c7.906,0.898,15.203,2.289,20.328,3.398C403.484,279.41,400.094,288.316,395.063,296.066z"/>
	</g>
</g>
<g>
</g>
<g>
</g>
<g>
</g>
<g>
</g>
<g>
</g>
<g>
</g>
<g>
</g>
<g>
</g>
<g>
</g>
<g>
</g>
<g>
</g>
<g>
</g>
<g>
</g>
<g>
</g>
<g>
</g>
</svg>
