<?xml version="1.0" encoding="iso-8859-1"?>
<!-- Generator: Adobe Illustrator 19.0.0, SVG Export Plug-In . SVG Version: 6.00 Build 0)  -->
<svg version="1.1" id="Layer_1" xmlns="http://www.w3.org/2000/svg" xmlns:xlink="http://www.w3.org/1999/xlink" x="0px" y="0px"
	 viewBox="0 0 512.077 512.077" style="enable-background:new 0 0 512.077 512.077;" xml:space="preserve">
<g transform="translate(1 1)">
	<g>
		<g>
			<path d="M306.277,464.105h-16.794c4.605-5.139,7.371-10.019,8.261-15.36c0.853-11.093-5.973-19.627-17.067-34.133
				c-1.707-2.56-4.267-5.973-6.827-9.387c-1.707-1.707-3.413-3.413-5.973-3.413s-5.12,0.853-6.827,2.56
				c-28.712,27.117-28.348,36.348-11.456,59.733h-61.812c14.529-16.856,8.657-27.785-6.945-49.493
				c-2.56-2.56-4.267-5.973-6.827-9.387c-1.707-1.707-3.413-3.413-5.973-3.413s-5.12,0-6.827,1.707
				c-15.36,11.947-23.893,20.48-25.6,30.72c-0.766,9.957,4.667,17.865,13.807,29.867H86.119
				c12.648-15.477,6.821-26.032-7.682-47.787c-2.56-3.413-4.267-6.827-6.827-11.093c-1.707-1.707-3.413-3.413-5.973-3.413
				c-2.56,0-5.12,0-6.827,1.707c-15.36,11.947-23.893,20.48-25.6,30.72c-0.766,9.957,4.667,17.865,13.807,29.867h-22.34
				c-5.12,0-8.533,3.413-8.533,8.533c0,5.12,3.413,8.533,8.533,8.533h38.4h0.853h101.547h0.853h99.84h0.853h39.253
				c5.12,0,8.533-3.413,8.533-8.533C314.81,467.519,311.397,464.105,306.277,464.105z M266.17,423.145
				c0,0.853,0.853,1.707,0.853,2.56c8.533,10.24,14.507,17.067,13.653,21.333c0,3.413-5.973,8.533-11.947,13.653
				c-0.853-0.853-0.853-0.853-1.707-1.707C252.517,440.212,250.81,437.652,266.17,423.145z M152.677,435.945
				c0-3.413,5.973-8.533,11.947-13.653c0.853,0.853,0.853,1.707,1.707,2.56c14.507,19.627,16.213,22.187,1.707,34.987
				c-0.853-0.853-0.853-1.707-1.707-2.56C157.797,447.038,151.824,440.212,152.677,435.945z M50.277,436.798
				c0.853-3.413,5.973-8.533,11.947-13.653c0.853,0.853,0.853,1.707,1.707,2.56c14.507,20.48,16.213,23.04,1.707,34.987
				c0-0.853-0.853-1.707-1.707-2.56C55.397,447.892,49.424,441.065,50.277,436.798z"/>
			<path d="M485.477,259.305H7.61c-2.56,0-5.12,0.853-6.827,3.413s-2.56,5.12-0.853,7.68l28.16,85.333
				c5.12,13.653,17.92,23.04,32.427,23.04h237.227c3.413,0,6.827-2.56,8.533-5.973l20.48-62.293h158.72
				c14.507,0,25.6-11.093,25.6-25.6C511.077,270.398,499.984,259.305,485.477,259.305z M485.477,293.439H319.93
				c-3.413,0-6.827,2.56-7.68,5.973l-20.48,62.293H60.517c-7.68,0-13.653-5.12-16.213-11.947l-24.747-73.387h465.92
				c5.12,0,8.533,3.413,8.533,8.533C494.01,290.025,490.597,293.439,485.477,293.439z"/>
			<path d="M75.877,191.038c18.773,0,34.133-15.36,34.133-34.133c0-18.773-15.36-34.133-34.133-34.133
				c-18.773,0-34.133,15.36-34.133,34.133C41.744,175.678,57.104,191.038,75.877,191.038z M75.877,139.838
				c9.387,0,17.067,7.68,17.067,17.067c0,9.387-7.68,17.067-17.067,17.067s-17.067-7.68-17.067-17.067
				C58.81,147.518,66.49,139.838,75.877,139.838z"/>
			<path d="M255.077,233.705c18.773,0,34.133-15.36,34.133-34.133s-15.36-34.133-34.133-34.133
				c-18.773,0-34.133,15.36-34.133,34.133S236.304,233.705,255.077,233.705z M255.077,182.505c9.387,0,17.067,7.68,17.067,17.067
				s-7.68,17.067-17.067,17.067c-9.387,0-17.067-7.68-17.067-17.067S245.69,182.505,255.077,182.505z"/>
			<path d="M169.744,45.972c3.413,0,6.827,0.853,9.387,3.413c1.707,0.853,3.413,1.707,5.12,1.707c2.56,0,5.973-1.707,6.827-4.267
				c3.413-4.267,1.707-9.387-1.707-11.947c-5.973-3.413-12.8-5.973-19.627-5.973c-5.12,0-8.533,3.413-8.533,8.533
				S164.624,45.972,169.744,45.972z"/>
			<path d="M186.81,63.038c0,3.413-0.853,6.827-3.413,10.24c-2.56,4.267-1.707,9.387,1.707,11.947
				c1.707,0.853,3.413,1.707,5.12,1.707c2.56,0,5.12-1.707,6.827-4.267c4.267-5.12,6.827-11.947,6.827-19.627
				c0-5.12-3.413-8.533-8.533-8.533S186.81,57.918,186.81,63.038z"/>
			<path d="M148.41,78.398c-2.56,4.267-1.707,9.387,1.707,11.947c5.12,4.267,11.947,6.827,19.627,6.827
				c5.12,0,8.533-3.413,8.533-8.533s-3.413-8.533-8.533-8.533c-3.413,0-6.827-0.853-9.387-3.413
				C156.09,74.132,150.97,74.985,148.41,78.398z"/>
			<path d="M144.144,71.572c5.12,0,8.533-3.413,8.533-8.533c0-3.413,0.853-6.827,2.56-9.387c3.413-4.267,1.707-9.387-1.707-11.947
				c-4.267-3.413-9.387-1.707-11.947,1.707c-3.413,5.973-5.973,12.8-5.973,19.627C135.61,68.158,139.024,71.572,144.144,71.572z"/>
			<path d="M169.744,284.905c-34.133,0-68.267,11.947-68.267,34.133s34.133,34.133,68.267,34.133
				c34.133,0,68.267-11.947,68.267-34.133S203.877,284.905,169.744,284.905z M169.744,336.105c-31.573,0-51.2-11.093-51.2-17.067
				s19.627-17.067,51.2-17.067c31.573,0,51.2,11.093,51.2,17.067S201.317,336.105,169.744,336.105z"/>
			<path d="M178.277,310.505H161.21c-5.12,0-8.533,3.413-8.533,8.533s3.413,8.533,8.533,8.533h17.067
				c5.12,0,8.533-3.413,8.533-8.533S183.397,310.505,178.277,310.505z"/>
		</g>
	</g>
</g>
<g>
</g>
<g>
</g>
<g>
</g>
<g>
</g>
<g>
</g>
<g>
</g>
<g>
</g>
<g>
</g>
<g>
</g>
<g>
</g>
<g>
</g>
<g>
</g>
<g>
</g>
<g>
</g>
<g>
</g>
</svg>
