<?xml version="1.0" encoding="iso-8859-1"?>
<!-- Generator: Adobe Illustrator 19.0.0, SVG Export Plug-In . SVG Version: 6.00 Build 0)  -->
<svg version="1.1" id="Capa_1" xmlns="http://www.w3.org/2000/svg" xmlns:xlink="http://www.w3.org/1999/xlink" x="0px" y="0px"
	 viewBox="0 0 59.933 59.933" style="enable-background:new 0 0 59.933 59.933;" xml:space="preserve">
<path style="fill:none;stroke:#839594;stroke-width:2;stroke-miterlimit:10;" d="M29.933,20.467v-14.5c0-2.475,2.025-4.5,4.5-4.5h0
	c2.475,0,4.5,2.025,4.5,4.5v2.5c0,2.2,1.8,4,4,4h0c2.2,0,4-1.8,4-4v-8"/>
<path style="fill:#38454F;" d="M13.194,40.467c-4.342,0-8.132-2.32-10.229-5.78L1.74,52.51c0,3.842,3.115,6.957,6.957,6.957h0
	c3.072,0,5.781-2.015,6.664-4.958l5.572-16.89C18.846,39.392,16.148,40.467,13.194,40.467z"/>
<path style="fill:#38454F;" d="M46.9,40.467c4.342,0,8.132-2.32,10.229-5.78l1.225,17.823c0,3.842-3.115,6.957-6.957,6.957h0
	c-3.072,0-5.781-2.015-6.664-4.958l-5.572-16.89C41.248,39.392,43.947,40.467,46.9,40.467z"/>
<g>
	<path style="fill:#38454F;" d="M30.034,42.467c-0.066-0.323-0.101-0.657-0.101-1c0,0.343-0.035,0.677-0.101,1H30.034z"/>
	<path style="fill:#38454F;" d="M39.734,39.356l-0.573-1.737c0.084,0.071,0.175,0.134,0.261,0.204
		c-2.734-2.189-4.489-5.546-4.489-9.322c0-3.61,1.606-6.839,4.134-9.033H21.22c2.528,2.194,4.134,5.423,4.134,9.033
		c0,3.609-1.616,6.823-4.145,9.015c0.147,0.094,0.224,0.258,0.222,0.428c0.9-0.903,2.126-1.477,3.502-1.477
		c2.71,0,4.903,2.16,4.984,4.85c0.012-0.001,0.02-0.006,0.032-0.006c0,0,0.001,0,0.001,0c0.084-2.687,2.275-4.844,4.983-4.844
		c2.034,0,3.776,1.219,4.557,2.962C39.564,39.386,39.647,39.363,39.734,39.356z"/>
</g>
<circle style="fill:#546A79;" cx="12.967" cy="28.5" r="12.967"/>
<circle style="fill:#546A79;" cx="46.967" cy="28.5" r="12.967"/>
<circle style="fill:#283238;" cx="24.933" cy="41.467" r="5"/>
<circle style="fill:#283238;" cx="34.933" cy="41.467" r="5"/>
<line style="fill:none;stroke:#AFB6BB;stroke-width:2;stroke-linecap:round;stroke-miterlimit:10;" x1="28.933" y1="24.467" x2="30.933" y2="24.467"/>
<circle style="fill:none;stroke:#DD352E;stroke-width:2;stroke-miterlimit:10;" cx="53.433" cy="27.967" r="2.5"/>
<circle style="fill:none;stroke:#BF4D90;stroke-width:2;stroke-miterlimit:10;" cx="40.433" cy="27.967" r="2.5"/>
<path style="fill:#283238;stroke:#38454F;stroke-width:2;stroke-linecap:round;stroke-miterlimit:10;" d="M18.219,26.467h-3.286
	v-3.286c0-0.395-0.32-0.714-0.714-0.714h-2.571c-0.395,0-0.714,0.32-0.714,0.714v3.286H7.648c-0.395,0-0.714,0.32-0.714,0.714v2.571
	c0,0.395,0.32,0.714,0.714,0.714h3.286v3.286c0,0.395,0.32,0.714,0.714,0.714h2.571c0.395,0,0.714-0.32,0.714-0.714v-3.286h3.286
	c0.395,0,0.714-0.32,0.714-0.714v-2.571C18.933,26.787,18.613,26.467,18.219,26.467z"/>
<circle style="fill:none;stroke:#5D7BDB;stroke-width:2;stroke-miterlimit:10;" cx="46.933" cy="33.467" r="2.5"/>
<circle style="fill:none;stroke:#20BEE2;stroke-width:2;stroke-miterlimit:10;" cx="46.933" cy="22.467" r="2.5"/>
<g>
</g>
<g>
</g>
<g>
</g>
<g>
</g>
<g>
</g>
<g>
</g>
<g>
</g>
<g>
</g>
<g>
</g>
<g>
</g>
<g>
</g>
<g>
</g>
<g>
</g>
<g>
</g>
<g>
</g>
</svg>
