<?xml version="1.0" encoding="iso-8859-1"?>
<!-- Generator: Adobe Illustrator 19.0.0, SVG Export Plug-In . SVG Version: 6.00 Build 0)  -->
<svg version="1.1" id="Layer_1" xmlns="http://www.w3.org/2000/svg" xmlns:xlink="http://www.w3.org/1999/xlink" x="0px" y="0px"
	 viewBox="0 0 512 512" style="enable-background:new 0 0 512 512;" xml:space="preserve">
<g transform="translate(1 1)">
	<g>
		<g>
			<path d="M412.44,313.88h-68.917c0.346-3.447-0.107-6.954-0.908-10.16c6.384-3.98,11.134-10.032,13.506-17.147
				c11.093,4.267,22.187,1.707,31.573-7.68c8.533-8.533,11.093-20.48,7.68-31.573c13.653-3.413,23.04-16.213,23.04-30.72
				c0-14.507-9.387-27.307-23.04-30.72c4.267-11.093,1.707-23.04-7.68-32.427c-9.387-9.387-19.627-10.24-25.6-9.387
				c-2.56,0-4.267,0.853-6.827,1.707c-1.965-6.55-5.946-12.089-11.161-16.242c-0.21-1.645-0.921-3.792-1.639-5.945
				c13.653-3.413,23.04-16.213,23.04-30.72c0-14.507-9.387-27.307-23.04-30.72c4.267-11.093,1.707-23.04-7.68-32.427
				c-9.387-9.387-19.627-10.24-25.6-9.387c-2.56,0-4.267,0.853-6.827,1.707C298.947,9.24,286.147-1,271.64-1
				c-14.507,0-27.307,10.24-30.72,23.893c-1.707-0.853-4.267-1.707-6.827-1.707c-6.827-0.853-16.213,0-25.6,9.387
				c-10.24,10.24-11.947,22.187-7.68,32.427c-12.8,3.413-23.04,16.213-23.04,30.72c0,1.388,0.112,2.752,0.279,4.102
				c-10.102,3.184-18.158,11.095-20.759,21.498c-10.24-3.413-22.187-2.56-32.427,7.68s-11.947,22.187-7.68,32.427
				c-12.8,3.413-23.04,16.213-23.04,30.72s9.387,27.307,23.04,30.72c-4.267,11.093-1.707,22.187,7.68,31.573
				c10.24,9.387,22.187,11.093,32.427,7.68c2.768,11.07,11.146,19.333,22.404,22.064c3.87,15.126,5.66,24.747,1.615,31.696H97.56
				c-11.947,0-22.187,10.24-22.187,22.187v7.68c0,11.947,10.24,22.187,22.187,22.187h5.483l45.609,128H92.44
				c-5.12,0-8.533,3.413-8.533,8.533S87.32,511,92.44,511h62.293h199.68h53.76c5.12,0,8.533-3.413,8.533-8.533
				s-3.413-8.533-8.533-8.533h-47.742l45.137-128h6.018c11.947,0,22.187-10.24,23.04-22.187v-7.68
				C434.627,324.12,424.387,313.88,412.44,313.88z M326.37,313.88h-51.965c1.848-6.672,4.125-16.242,5.18-26.567
				c2.132,0.271,4.322,0.317,6.562,0.114c2.56,0,5.12-0.853,7.68-1.707c3.413,13.653,15.36,23.04,30.72,23.04
				c0.642,0,1.269-0.04,1.899-0.073C326.774,310.561,326.824,312.428,326.37,313.88z M352.707,166.253
				c3.413-3.413,7.68-5.12,11.093-5.973c4.267-0.853,7.68,0.853,11.093,4.267c10.24,10.24,2.56,19.627-0.853,23.04
				c-2.56,2.56-3.413,6.827-1.707,10.24c0.853,2.56,4.267,5.12,10.24,4.267c0.853,0,3.413-0.853,4.267-0.853
				c8.533,0,14.507,5.973,14.507,14.507c0,7.68-6.827,14.507-14.507,14.507c-1.707,0-3.413-0.853-4.267-0.853
				c-5.973-0.853-9.387,2.56-10.24,4.267c-1.707,3.413-0.853,7.68,1.707,10.24c2.56,2.56,10.24,12.8,0.853,22.187
				c-9.387,10.24-19.627,1.707-22.187-0.853s-6.827-3.413-10.24-1.707c-1.707,0.853-5.12,4.267-4.267,10.24
				c0,0.853,0.853,2.56,0.853,4.267c0,8.533-5.973,14.507-14.507,14.507c-7.68,0-14.507-6.827-14.507-14.507
				c0-1.707,0.853-3.413,0.853-4.267c0.853-5.973-2.56-9.387-4.267-10.24s-2.56-0.853-4.267-0.853c-2.56,0-13.653,6.827-17.92,6.827
				c-3.413,0.853-7.68-0.853-11.093-4.267c-8.533-8.533-3.413-17.067,1.707-22.187c2.56-2.56,3.413-6.827,1.707-10.24
				c-0.853-2.56-4.267-5.12-10.24-4.267c-0.853,0-3.413,0.853-4.267,0.853c-1.645,0-3.244-0.289-4.752-0.803
				c-0.741-1.087-1.726-2.009-2.928-2.61c-1.264-0.632-3.927-3.132-5.227-4.389c-1.009-1.965-1.6-4.222-1.6-6.705
				c0-7.68,5.973-14.507,14.507-14.507c1.707,0,3.413,0.853,4.267,0.853c5.973,0.853,9.387-2.56,10.24-4.267
				c1.707-3.413,0.853-7.68-1.707-10.24c1.433-0.191,2.839-0.48,4.221-0.839c11.281-2.505,19.873-10.58,23.595-22.025
				c10.923,3.996,21.821,1.387,31.064-7.856c1.499-1,2.411-2.291,3.254-3.533c0.61-0.75,1.192-1.506,1.712-2.268
				c0.053-0.056,0.1-0.118,0.154-0.172c0,0.853,0,2.56,0,3.413c0,1.707-0.853,3.413-0.853,4.267
				c-0.853,5.973,2.56,9.387,4.267,10.24C345.88,169.667,350.147,168.813,352.707,166.253z M210.2,78.36
				c0.853,0,3.413,0.853,4.267,0.853c5.973,1.707,9.387-1.707,10.24-4.267c1.707-3.413,0.853-7.68-1.707-10.24
				c-4.267-5.12-11.093-13.653-1.707-23.04c3.413-3.413,6.827-5.12,11.093-4.267c3.413,0,7.68,2.56,11.093,5.973
				c2.56,2.56,6.827,3.413,10.24,1.707c2.56-1.707,5.12-4.267,4.267-10.24c-0.853-0.853-0.853-3.413-0.853-4.267
				c0-7.68,5.973-14.507,14.507-14.507s14.507,6.827,13.653,15.36c0,1.707-0.853,3.413-0.853,4.267
				c-0.853,5.973,1.707,8.533,4.267,10.24c3.413,1.707,7.68,0.853,10.24-1.707c3.413-3.413,7.68-5.12,11.093-5.973
				c4.267-0.853,7.68,0.853,11.093,4.267c10.24,10.24,2.56,19.627-0.853,23.04c-2.56,2.56-3.413,6.827-1.707,10.24
				c0.853,1.707,4.267,5.12,10.24,4.267c0.853,0,2.56-0.853,4.267-0.853c8.533,0,14.507,6.827,14.507,14.507
				s-6.827,14.507-14.507,14.507c-1.707,0-3.413-0.853-4.267-0.853c-5.973-0.853-9.387,2.56-10.24,4.267
				c-1.707,3.413-0.853,7.68,1.707,10.24c3.413,3.413,5.973,7.68,5.973,11.093c0.016,0.08,0.025,0.157,0.039,0.236
				c-0.013,0.206-0.039,0.405-0.039,0.617c0.132,0.53,0.196,1.059,0.208,1.589c-0.1,3.094-1.659,5.772-4.268,8.438
				c-0.07,0.071-0.135,0.142-0.207,0.213c0,0-0.001,0.001-0.001,0.001c-3.413,3.413-6.826,4.266-11.092,4.266
				c-3.413-0.853-7.68-2.56-11.093-5.973c-2.56-2.56-6.827-3.413-10.24-1.707c-2.291,0.764-4.574,3.584-4.419,8.447
				c-0.027,0.802,0.013,1.675,0.152,2.646c0.686,0.686,0.819,2.461,0.845,3.58c-0.089,8.443-6.869,14.34-14.498,14.34
				c-2.334,0-4.586-0.638-6.595-1.732c-0.343-0.292-0.7-0.572-1.085-0.828c-0.199-0.066-0.384-0.147-0.573-0.224
				c-3.715-2.695-6.254-7.046-6.254-11.723c0-1.707,0.853-3.413,0.853-4.267c0.853-5.973-2.56-9.387-4.267-10.24
				c-1.6-0.8-2.459-0.849-3.966-0.853c-2.004-0.162-4.038,0.356-5.699,1.421c-0.192,0.094-0.384,0.19-0.575,0.285
				c-3.413,3.413-6.827,5.973-11.093,5.973c-4.267,0.853-7.68-0.853-11.093-4.267s-5.12-6.827-4.267-11.093
				c0-3.413,2.56-7.68,5.973-11.093c2.56-2.56,3.413-6.827,1.707-10.24c-0.853-2.56-4.267-5.12-10.24-4.267
				c-0.853,0-3.413,0.853-4.267,0.853c-7.68,0-14.507-6.827-14.507-14.507S201.667,78.36,210.2,78.36z M173.507,252.44
				c0-1.707,0.853-3.413,0.853-4.267c0.853-5.973-2.56-9.387-4.267-10.24s-2.56-0.853-4.267-0.853c-2.56,0-4.267,0.853-5.973,1.707
				c-5.973,5.12-15.36,8.533-23.04,0.853c-8.533-8.533-3.413-17.067,1.707-22.187c2.56-2.56,3.413-6.827,1.707-10.24
				c-0.853-1.707-4.267-5.12-10.24-4.267c-0.853,0-3.413,0.853-4.267,0.853c-7.68,0-14.507-6.827-14.507-14.507
				s5.973-14.507,14.507-14.507c1.707,0,3.413,0.853,4.267,0.853c5.973,0.853,9.387-2.56,10.24-4.267
				c1.707-3.413,0.853-7.68-1.707-10.24c-3.413-3.413-11.093-12.8-2.56-22.187c10.24-9.387,19.627-1.707,23.04,1.707
				c2.56,2.56,6.827,3.413,10.24,1.707c1.707-0.853,5.12-4.267,4.267-10.24c0-0.853-0.853-3.413-0.853-4.267
				c0-6.827,5.12-12.8,11.093-14.507c0.853,0.853,2.56,2.56,3.413,3.413l0.853,0.853c0.324,0.243,0.648,0.485,0.972,0.727
				c1.616,1.367,3.378,2.561,5.266,3.561c1.015,0.573,2.03,1.045,3.045,1.389c0.808,0.315,1.633,0.595,2.477,0.84
				c-3.979,10.94-1.367,22.649,7.867,31.884c6.159,6.159,13.711,9.528,22.022,9.503c1.177,0.03,2.37-0.007,3.578-0.117
				c2.346,0,4.692-0.717,7.038-1.494c0.635,0.642,0.642,0.721,0.642,1.494c0.853,1.707,1.707,4.267,2.56,5.973
				c0.853,0,0.853,0.853,0.853,0.853c1.707,3.413,4.267,5.973,7.68,8.533c0,1.707,0,2.56,0.853,4.267
				c-0.755,0.201-1.483,0.547-2.185,1.01c-11.343,4.483-20.002,16.372-20.002,29.71c0,5.852,1.549,11.412,4.268,16.205
				c0,0.002-0.001,0.009-0.001,0.009c0.014,0.021,0.028,0.042,0.042,0.063c1.081,1.895,2.331,3.678,3.765,5.295
				c0.438,0.536,0.876,1.031,1.314,1.469c-0.853,0-0.853,0.853-1.707,1.707c-9.387,10.24-19.627,1.707-22.187-0.853
				s-6.827-3.413-10.24-1.707c-1.707,0.853-5.12,4.267-4.267,10.24c0.853,0.853,0.853,3.413,0.853,4.267
				c0,8.533-6.827,14.507-14.507,14.507S173.507,260.12,173.507,252.44z M196.964,281.883c10.572-3.055,19.083-11.562,21.769-24.323
				c11.093,4.267,22.187,1.707,31.573-7.68c1.122-1.122,2.12-2.306,3.021-3.53c0.133,0.035,0.259,0.084,0.392,0.117
				c-4.267,11.093-1.707,22.187,7.68,31.573c0.535,0.535,1.085,1.042,1.641,1.535c-0.519,13.871-4.174,27.588-6.226,34.305h-57.506
				C202.018,304.145,200.142,293.358,196.964,281.883z M166.68,493.933l-25.6-75.947l6.827,5.973
				c3.413,2.56,13.653,10.24,30.72,10.24c8.533,0,15.36-4.267,21.333-8.533c2.56-2.56,5.12-4.267,7.68-5.12
				c13.653-5.12,17.067-4.267,23.893,2.56l33.28,34.987c5.973,6.827,16.213,11.093,28.16,10.24c10.24,0,20.48-4.267,29.867-11.947
				l12.8-11.093c3.413-2.56,7.68-3.413,11.947-0.853l10.24,5.973l-15.36,43.52H166.68z M363.33,434.887l-8.916-4.954
				c-9.387-5.973-22.187-5.12-31.573,2.56l-12.8,11.093c-4.267,3.413-11.093,8.533-19.627,8.533c-5.973,0-11.947-1.707-14.507-5.12
				l-33.28-35.84c-14.507-13.653-26.453-12.8-42.667-5.973c-4.267,1.707-7.68,4.267-11.093,6.827
				c-4.267,3.413-8.533,5.973-11.947,5.973c-11.093,0-17.067-5.12-19.627-6.827l-28.776-25.234l-7.064-19.992h266.24L363.33,434.887
				z M417.56,343.747c0,2.56-2.56,5.12-5.12,5.12h-0.853H97.56c-2.56,0-5.12-2.56-5.12-4.267v-7.68c0-2.56,2.56-5.12,5.12-5.12
				l314.88-0.853c2.56,0,5.12,2.56,5.12,5.12V343.747z"/>
			<path d="M271.64,127c18.773,0,34.133-15.36,34.133-34.133c0-18.773-15.36-34.133-34.133-34.133
				c-18.773,0-34.133,15.36-34.133,34.133C237.507,111.64,252.867,127,271.64,127z M271.64,75.8c9.387,0,17.067,7.68,17.067,17.067
				c0,9.387-7.68,17.067-17.067,17.067s-17.067-7.68-17.067-17.067C254.573,83.48,262.253,75.8,271.64,75.8z"/>
			<path d="M222.147,189.293c0-18.773-15.36-34.133-34.133-34.133s-34.133,15.36-34.133,34.133s15.36,34.133,34.133,34.133
				S222.147,208.067,222.147,189.293z M170.947,189.293c0-9.387,7.68-17.067,17.067-17.067s17.067,7.68,17.067,17.067
				s-7.68,17.067-17.067,17.067S170.947,198.68,170.947,189.293z"/>
			<path d="M290.413,214.893c0,18.773,15.36,34.133,34.133,34.133s34.133-15.36,34.133-34.133c0-18.773-15.36-34.133-34.133-34.133
				C305.773,180.76,290.413,196.12,290.413,214.893z M341.613,214.893c0,9.387-7.68,17.067-17.067,17.067
				s-17.067-7.68-17.067-17.067c0-9.387,7.68-17.067,17.067-17.067S341.613,205.507,341.613,214.893z"/>
		</g>
	</g>
</g>
<g>
</g>
<g>
</g>
<g>
</g>
<g>
</g>
<g>
</g>
<g>
</g>
<g>
</g>
<g>
</g>
<g>
</g>
<g>
</g>
<g>
</g>
<g>
</g>
<g>
</g>
<g>
</g>
<g>
</g>
</svg>
