<?xml version="1.0" standalone="no"?>
<!DOCTYPE svg PUBLIC "-//W3C//DTD SVG 20010904//EN"
 "http://www.w3.org/TR/2001/REC-SVG-20010904/DTD/svg10.dtd">
<svg version="1.0" xmlns="http://www.w3.org/2000/svg"
 preserveAspectRatio="xMidYMid meet">
<metadata>
Created by potrace 1.14, written by Peter Selinger 2001-2017
</metadata>
<g transform="translate(0.000000,920.000000) scale(0.100000,-0.100000)"
fill="#000000" stroke="none">
<path d="M1197 5702 l-998 -998 3 -106 3 -106 983 -986 983 -986 1984 0 1983
0 43 47 c54 61 188 265 474 723 388 622 446 710 461 710 24 0 1455 -305 1664
-354 36 -9 85 -16 111 -16 38 0 50 5 77 33 l32 33 0 1470 0 1471 -23 21 -23
22 -1456 0 -1456 0 -78 -72 c-44 -39 -464 -455 -934 -925 l-855 -853 -935 935
-935 935 -55 0 -55 0 -998 -998z m7503 -437 c0 -608 -1 -1105 -3 -1105 -1 0
-499 497 -1107 1105 l-1105 1105 1108 0 1107 0 0 -1105z m-5600 180 l845 -845
-848 -848 -847 -847 -847 847 -848 848 845 845 c465 465 847 845 850 845 3 0
385 -380 850 -845z m2850 -847 l0 -1543 -772 772 -773 773 770 770 c423 423
771 770 772 770 2 0 3 -694 3 -1542z m1423 424 c544 -546 988 -995 985 -998
-5 -5 -261 48 -879 180 -261 56 -321 66 -406 66 -98 0 -100 0 -139 -34 -27
-23 -136 -189 -349 -530 l-310 -496 -7 42 c-11 64 -6 2838 4 2838 5 0 6 10 2
23 -4 14 13 2 51 -38 32 -33 503 -507 1048 -1053z m-2428 -1422 l770 -770
-1540 0 -1540 0 770 770 c423 424 770 770 770 770 0 0 347 -346 770 -770z"/>
</g>
</svg>
