<?xml version="1.0" encoding="iso-8859-1"?>
<!-- Generator: Adobe Illustrator 19.0.0, SVG Export Plug-In . SVG Version: 6.00 Build 0)  -->
<svg version="1.1" id="Capa_1" xmlns="http://www.w3.org/2000/svg" xmlns:xlink="http://www.w3.org/1999/xlink" x="0px" y="0px"
	 viewBox="0 0 60 60" style="enable-background:new 0 0 60 60;" xml:space="preserve">
<g>
	<g>
		<path d="M58.15,25c0-8.8-7.2-16-16-16c-9,0-16.3,7.2-16.3,16h2c0-7.7,6.4-14,14.3-14c7.7,0,14,6.3,14,14c0,6.8-4.8,12.6-11.5,13.8
			c-0.5,0.1-0.8,0.5-0.8,1V46h-3v-6h-2v6h-2c-0.6,0-1,0.4-1,1v13h2v-4h5v-2h-5v-2h5v-2h-5v-2h2h5h2v12h2V47c0-0.6-0.4-1-1-1h-2v-5.4
			C53.05,38.9,58.15,32.5,58.15,25z"/>
		<path d="M23.85,39h-10c-3.9,0-7,3.1-7,7v12h-3V13h10c0.6,0,1-0.4,1-1V2h33v5h2V1c0-0.6-0.4-1-1-1h-35l0,0c-0.1,0-0.2,0-0.3,0.1
			h-0.1c-0.1,0.1-0.2,0.1-0.3,0.2l0,0l-11,11l0,0c-0.1,0.1-0.1,0.2-0.2,0.3v0.1c0,0.1-0.1,0.2-0.1,0.3l0,0v47c0,0.6,0.4,1,1,1h26h1
			h1V46C30.85,42.1,27.75,39,23.85,39z M5.25,11l3.8-3.8l3.8-3.8V11H5.25z M20.55,41l-1.6,4.2l-1.6-4.2H20.55z M28.85,58h-3v-9h-2v9
			h-10v-9h-2v9h-3V46c0-2.8,2.2-5,5-5h1.3l2.8,7.4c0.1,0.3,0.5,0.6,0.9,0.6s0.8-0.3,1.1-0.6l2.8-7.4h1.1c2.8,0,5,2.2,5,5L28.85,58
			L28.85,58z"/>
		<rect x="17.85" y="51" width="2" height="2"/>
		<rect x="17.85" y="55" width="2" height="2"/>
		<path d="M17.85,38h2c2.8,0,5-2.2,5-5v-3c0-2.8-2.2-5-5-5h-2c-2.8,0-5,2.2-5,5v3C12.85,35.8,15.05,38,17.85,38z M14.85,30
			c0-1.7,1.3-3,3-3h2c1.7,0,3,1.3,3,3v3c0,1.7-1.3,3-3,3h-2c-1.7,0-3-1.3-3-3V30z"/>
		<path d="M52.85,25c0-6.1-4.9-11-11-11s-11,4.9-11,11s4.9,11,11,11S52.85,31.1,52.85,25z M32.85,25c0-5,4-9,9-9s9,4,9,9s-4,9-9,9
			S32.85,30,32.85,25z"/>
		<rect x="40.85" y="24" width="2" height="2"/>
		<rect x="44.85" y="24" width="2" height="2"/>
		<rect x="36.85" y="24" width="2" height="2"/>
		<rect x="40.85" y="20" width="2" height="2"/>
		<rect x="40.85" y="28" width="2" height="2"/>
		<rect x="7.85" y="16" width="10" height="2"/>
		<rect x="7.85" y="20" width="10" height="2"/>
		<rect x="19.85" y="16" width="2" height="2"/>
		<rect x="19.85" y="20" width="2" height="2"/>
	</g>
</g>
<g>
</g>
<g>
</g>
<g>
</g>
<g>
</g>
<g>
</g>
<g>
</g>
<g>
</g>
<g>
</g>
<g>
</g>
<g>
</g>
<g>
</g>
<g>
</g>
<g>
</g>
<g>
</g>
<g>
</g>
</svg>
