<?xml version="1.0" encoding="iso-8859-1"?>
<!-- Generator: Adobe Illustrator 19.0.0, SVG Export Plug-In . SVG Version: 6.00 Build 0)  -->
<svg version="1.1" id="Layer_1" xmlns="http://www.w3.org/2000/svg" xmlns:xlink="http://www.w3.org/1999/xlink" x="0px" y="0px"
	 viewBox="0 0 512 512" style="enable-background:new 0 0 512 512;" xml:space="preserve">
<g>
	<g>
		<path d="M416,213.333c-13.952,0-27.136,3.136-39.104,8.533c-4.459-10.304-8.533-20.352-12.267-29.867h72.704
			c3.691,0,7.147-1.92,9.088-5.056c1.941-3.136,2.133-7.061,0.469-10.368l-21.333-42.667c-2.645-5.269-9.045-7.381-14.315-4.779
			c-5.269,2.645-7.424,9.045-4.779,14.315l13.611,27.221h-63.616c-1.963-5.333-3.691-10.197-5.035-14.123
			c-0.235-0.725-0.555-1.408-0.96-2.069c-2.944-4.885-29.845-47.808-62.464-47.808c-5.888,0-10.667,4.779-10.667,10.667
			S282.112,128,288,128c16.96,0,37.056,26.155,43.648,36.587c1.344,3.883,4.395,12.544,8.597,23.701L229.995,289.344
			l-36.907-147.669l21.76-3.115c5.824-0.832,9.877-6.251,9.045-12.075c-0.832-5.845-6.229-9.877-12.075-9.045l-74.667,10.667
			c-5.824,0.832-9.877,6.251-9.045,12.075c0.768,5.312,5.333,9.152,10.56,9.152c0.491,0,1.003-0.021,1.515-0.107l31.68-4.523
			l14.891,59.563c-0.619,0.363-1.301,0.576-1.856,1.088l-31.211,27.733c-16.107-12.224-35.947-19.755-57.685-19.755
			c-52.928,0-96,43.072-96,96c0,52.928,43.072,96,96,96c50.197,0,91.072-38.891,95.189-88.043l31.915,2.667
			C223.403,320,223.701,320,224,320c0.853,0,1.728-0.107,2.603-0.32c0.213-0.043,0.363-0.192,0.555-0.256
			c0.747-0.235,1.429-0.597,2.112-1.003c0.512-0.299,1.045-0.555,1.493-0.917c0.128-0.107,0.299-0.149,0.427-0.256l117.397-107.605
			c3.008,7.467,6.293,15.339,9.813,23.403c-23.168,17.515-38.4,45.056-38.4,76.288c0,52.928,43.072,96,96,96s96-43.072,96-96
			C512,256.405,468.928,213.333,416,213.333z M169.067,294.059l-47.403-3.947l31.616-28.096
			C160.875,271.189,166.549,281.984,169.067,294.059z M96,384c-41.173,0-74.667-33.493-74.667-74.667
			c0-41.173,33.493-74.667,74.667-74.667c15.403,0,29.717,4.693,41.621,12.715l-48.725,43.307
			c-3.179,2.837-4.373,7.296-3.029,11.349c1.344,4.053,4.992,6.891,9.237,7.253l74.944,6.251C166.827,353.771,135.04,384,96,384z
			 M190.635,295.851c-2.581-18.155-10.197-34.539-21.483-47.957l23.339-20.757l17.579,70.315L190.635,295.851z M416,384
			c-41.173,0-74.667-33.493-74.667-74.667c0-22.592,10.283-42.603,26.176-56.32c12.928,27.136,27.712,52.821,41.643,64.491
			c2.005,1.685,4.437,2.496,6.848,2.496c3.051,0,6.059-1.301,8.171-3.797c3.776-4.523,3.179-11.264-1.323-15.04
			c-11.413-9.557-24.853-33.536-37.205-59.904c9.301-4.16,19.52-6.592,30.357-6.592c41.173,0,74.667,33.493,74.667,74.667
			C490.667,350.507,457.173,384,416,384z"/>
	</g>
</g>
<g>
</g>
<g>
</g>
<g>
</g>
<g>
</g>
<g>
</g>
<g>
</g>
<g>
</g>
<g>
</g>
<g>
</g>
<g>
</g>
<g>
</g>
<g>
</g>
<g>
</g>
<g>
</g>
<g>
</g>
</svg>
