<?xml version="1.0" encoding="iso-8859-1"?>
<!-- Generator: Adobe Illustrator 19.0.0, SVG Export Plug-In . SVG Version: 6.00 Build 0)  -->
<svg version="1.1" id="Layer_1" xmlns="http://www.w3.org/2000/svg" xmlns:xlink="http://www.w3.org/1999/xlink" x="0px" y="0px"
	 viewBox="0 0 512 512" style="enable-background:new 0 0 512 512;" xml:space="preserve">
<g>
	<g>
		<path d="M512,256.001c0-23.143-27.406-42.899-79.255-57.132c-12.614-3.462-26.353-6.496-40.94-9.105
			c6.925-13.102,12.993-25.795,18.031-37.867c20.705-49.62,22.01-83.38,3.772-97.628c-18.231-14.25-50.676-4.815-93.815,27.279
			c-22.432,16.69-46.453,38.504-70.557,63.882c-27.018-22.251-53.519-40.975-77.817-54.807
			C124.695,64.029,91.349,58.62,74.98,74.982c-16.364,16.366-10.955,49.714,15.643,96.44c3.987,7.006,8.419,14.209,13.186,21.54
			c-8.555,1.814-16.782,3.774-24.555,5.907C27.406,213.102,0,232.858,0,256.001s27.406,42.899,79.254,57.132
			c12.614,3.462,26.351,6.496,40.939,9.105c-6.925,13.1-12.992,25.794-18.029,37.866c-20.705,49.62-22.009,83.38-3.774,97.627h0.001
			c5.522,4.316,12.346,6.458,20.376,6.458c18.487,0,43.366-11.362,73.438-33.736c22.432-16.69,46.453-38.504,70.557-63.882
			c27.019,22.252,53.52,40.976,77.818,54.808c29.079,16.553,52.974,24.899,70.822,24.899c10.831,0,19.438-3.076,25.617-9.256
			c16.365-16.364,10.958-49.713-15.642-96.44c-3.988-7.006-8.42-14.21-13.186-21.541c8.554-1.814,16.782-3.774,24.555-5.907
			C484.594,298.899,512,279.143,512,256.001z M401.714,69.494c12.746,9.958,4.058,54.261-30.026,117.025
			c-26.077-3.758-54.405-6.204-83.913-7.231c-7.921-7.389-15.863-14.534-23.79-21.394C331.398,87.074,386.532,57.629,401.714,69.494
			z M342.534,234.921c-10.14-11.238-20.788-22.468-31.887-33.567c-0.599-0.599-1.203-1.183-1.803-1.779
			c18.831,1.121,36.383,2.832,52.633,4.982C355.732,214.323,349.42,224.461,342.534,234.921z M344.44,266.402
			c11.2,13.196,21.534,26.281,30.89,39.072c-19.648,3.052-41.516,5.427-65.382,6.88c2.326-2.902,4.645-5.822,6.951-8.774
			C326.556,291.219,335.75,278.784,344.44,266.402z M250.861,172.023c2.537,2.194,5.088,4.431,7.658,6.711
			c-0.842-0.002-1.676-0.017-2.519-0.017c-3.745,0-7.473,0.031-11.192,0.076C246.834,176.502,248.852,174.244,250.861,172.023z
			 M88.643,88.645c2.551-2.551,6.66-3.837,12.16-3.837c23.888,0,73.913,24.32,135.321,74.785
			c-5.835,6.448-11.657,13.072-17.447,19.887c-33.64,1.382-65.617,4.641-94.367,9.566C89.357,137.085,78.013,99.274,88.643,88.645z
			 M167.541,245.623c-11.537-13.574-21.874-26.663-30.953-39.084c19.667-3.057,41.564-5.436,65.46-6.891
			c-2.324,2.902-4.643,5.821-6.948,8.771C185.435,220.79,176.236,233.233,167.541,245.623z M169.465,277.082
			c10.14,11.238,20.786,22.467,31.887,33.567c0.599,0.599,1.202,1.181,1.802,1.777c-18.831-1.12-36.383-2.831-52.633-4.981
			C156.266,297.679,162.579,287.541,169.465,277.082z M19.321,256.001c0-15.033,34.758-33.746,96.216-45.774
			c11.946,16.886,25.643,34.323,40.736,51.874c-9.545,14.315-18.342,28.476-26.25,42.285
			C59.579,292.603,19.321,272.175,19.321,256.001z M110.284,442.507h0.001c-12.747-9.957-4.058-54.259,30.026-117.024
			c26.077,3.758,54.403,6.204,83.91,7.231c7.922,7.389,15.865,14.534,23.793,21.394
			C180.603,424.926,125.473,454.372,110.284,442.507z M232.117,313.642c-5.722-5.426-11.428-10.981-17.103-16.656
			c-12.39-12.389-23.84-24.539-34.416-36.374c9.056-13.037,18.939-26.491,29.726-40.297c5.913-7.568,11.788-14.84,17.615-21.847
			c9.11-0.278,18.456-0.43,28.061-0.43c8.15,0,16.097,0.12,23.892,0.321c5.643,5.361,11.341,10.906,17.093,16.657
			c12.045,12.045,23.542,24.231,34.398,36.399c-9.052,13.028-18.929,26.474-29.709,40.271c-5.914,7.568-11.788,14.84-17.614,21.847
			c-9.11,0.278-18.456,0.43-28.06,0.43C247.853,313.963,239.909,313.843,232.117,313.642z M261.169,339.944
			c-2.54-2.195-5.083-4.422-7.627-6.677c0.822,0.002,1.637,0.016,2.459,0.016c3.744,0,7.473-0.031,11.19-0.075
			C265.176,335.488,263.166,337.734,261.169,339.944z M423.357,423.358l-0.001,0.001c-6.733,6.731-29.951,5.856-73.219-18.772
			c-23.129-13.165-48.395-30.984-74.237-52.206c5.825-6.44,11.639-13.054,17.42-19.859c33.617-1.381,65.571-4.637,94.307-9.555
			c6.264,9.304,11.965,18.398,16.959,27.172C429.216,393.408,430.091,416.625,423.357,423.358z M396.462,301.774
			c-11.947-16.885-25.644-34.322-40.737-51.874c9.545-14.315,18.343-28.476,26.25-42.285
			c70.444,11.782,110.704,32.211,110.704,48.385C492.679,271.034,457.921,289.747,396.462,301.774z"/>
	</g>
</g>
<g>
</g>
<g>
</g>
<g>
</g>
<g>
</g>
<g>
</g>
<g>
</g>
<g>
</g>
<g>
</g>
<g>
</g>
<g>
</g>
<g>
</g>
<g>
</g>
<g>
</g>
<g>
</g>
<g>
</g>
</svg>
